<svg xmlns="http://www.w3.org/2000/svg" xmlns:xlink="http://www.w3.org/1999/xlink" viewBox="0 0 1025.62 266.86"><defs><style>.cls-1,.cls-4{fill:none;}.cls-2{clip-path:url(#clip-path);}.cls-13,.cls-3,.cls-5,.cls-6{fill:#1d1d1b;}.cls-4{stroke:red;stroke-width:4px;}.cls-5{font-size:23.82px;font-family:FilsonProBold, Filson Pro;}.cls-13,.cls-6{font-size:20px;font-family:Montserrat-Medium, Montserrat;font-weight:500;}.cls-6{letter-spacing:-0.05em;}.cls-7{letter-spacing:0em;}.cls-8{letter-spacing:-0.01em;}.cls-9{letter-spacing:-0.01em;}.cls-10{letter-spacing:-0.01em;}.cls-11{letter-spacing:0em;}.cls-12{letter-spacing:-0.01em;}.cls-14{letter-spacing:0em;}.cls-15{letter-spacing:-0.05em;}.cls-16{letter-spacing:0.01em;}.cls-17{letter-spacing:-0.02em;}.cls-18{letter-spacing:-0.01em;}.cls-19{letter-spacing:-0.01em;}.cls-20{letter-spacing:0em;}.cls-21{letter-spacing:-0.02em;}</style><clipPath id="clip-path" transform="translate(-17.78 0)"><rect class="cls-1" width="1052.4" height="282.07"/></clipPath></defs><g id="Ebene_2" data-name="Ebene 2"><g id="Layer_1" data-name="Layer 1"><g class="cls-2"><path class="cls-3" d="M33.85,114.64c4.16,0,7.65-4.29,7.65-12.76,0-8.66-3.26-13.95-7.88-13.95s-7.31,6-7.31,13.22c0,7.47,2.85,13.49,7.54,13.49M49.78,77.91v46.75H41.27v-6.83c-2.11,4.82-4.91,7.83-9.19,7.83-8.91,0-14.28-10.93-14.28-24.6,0-13.13,5-24.15,14.11-24.15,3.93,0,7.36,3.09,9.36,7.38V77.91Z" transform="translate(-17.78 0)"/></g><polygon class="cls-3" points="57.01 124.66 48.55 124.66 36.28 77.91 45.59 77.91 52.72 109.44 59.92 77.91 69.23 77.91 57.01 124.66"/><g class="cls-2"><path class="cls-3" d="M114.3,56.31l-8.45,15.77H99.68l5.65-15.77ZM96.65,96.23h14.68c-.57-6-4.4-8.3-7.25-8.3s-6.4,2-7.43,8.3m21.82,20.23c-4.17,7.29-9.71,9.2-13.65,9.2C94,125.66,88,114.82,88,101.51c0-13.76,6.74-24.6,16.16-24.6,8.11,0,15.88,8.93,15.88,27.52H96.48c.17,5.83,3.54,10.11,9,10.11,3,0,6-2.46,8.11-5.56Z" transform="translate(-17.78 0)"/><path class="cls-3" d="M151.76,99.6v25.06H143.3V99.51c0-6.38-1.14-11.4-4.91-11.4s-4.85,5.2-4.85,11.49v25.06H125V77.91h8.51v6.38c1.88-4.65,4.62-7.38,7.82-7.38,4.46,0,7.48,3.09,9,7.83,2.23-6.83,6.45-7.83,9.25-7.83,8.22,0,10.45,10.48,10.45,22.32v25.43h-8.51V99.51c0-6.38-1.14-11.4-4.91-11.4s-4.85,5.2-4.85,11.49" transform="translate(-17.78 0)"/><path class="cls-3" d="M183.79,96.23h14.67c-.57-6-4.4-8.3-7.25-8.3s-6.4,2-7.42,8.3m21.81,20.23c-4.17,7.29-9.71,9.2-13.65,9.2-10.85,0-16.79-10.84-16.79-24.15,0-13.76,6.74-24.6,16.16-24.6,8.11,0,15.88,8.93,15.88,27.52H183.61c.18,5.83,3.55,10.11,9,10.11,3,0,6-2.46,8.11-5.56Z" transform="translate(-17.78 0)"/><path class="cls-3" d="M212.16,77.91h8.51v6.38c2.46-5.47,5.54-7.38,9.08-7.38,8.22,0,10.45,10.48,10.45,22.32v25.43h-8.51V99.51c0-6.47-1.48-11.39-5.42-11.39s-5.6,5-5.6,11.48v25.06h-8.51Z" transform="translate(-17.78 0)"/><path class="cls-3" d="M257.67,77.91h8.11V88.57h-8.11v21.87c0,2,.52,4.1,2.17,4.1s2.23-2.18,2.23-4.37a23,23,0,0,0-.4-4h6.74a21.2,21.2,0,0,1,.68,5.56c0,6.92-2.85,13.94-9.76,13.94-5.14,0-10.17-2.91-10.17-16.49V88.57h-4.39V77.91h5l1.31-11.48h6.57Z" transform="translate(-17.78 0)"/><path class="cls-3" d="M317.39,111.82A30.17,30.17,0,0,0,314.8,99.7c-2.55-5.54-6.73-9.15-11.46-9.15-6.54,0-12,6.89-13.61,16.23a31.8,31.8,0,0,0-.45,5c-.23-.44-.46-.9-.67-1.36a38.86,38.86,0,0,1-3.31-16.1c0-12,4.95-22.31,11.87-26.21a12.5,12.5,0,0,1,6.17-1.67c10,0,18,12.48,18,27.88a38.12,38.12,0,0,1-4,17.46M303.34,54.69c-14.18,0-25.67,17.76-25.67,39.67a58.55,58.55,0,0,0,2.22,16.14c4.8,14.16,16.82,19.46,25.72,11.27.39-.36.78-.73,1.15-1.12a4.89,4.89,0,0,1-3.42,1.54,4.42,4.42,0,0,1-2.09-.54c-2.51-1.34-4.32-5-4.32-9.36,0-5.47,2.87-9.9,6.41-9.9,2.27,0,4.27,1.84,5.41,4.61.13.34.26.69.37,1a24.89,24.89,0,0,1,1.23,7.66v.2a25.76,25.76,0,0,1-.37,4.37,22.13,22.13,0,0,1-.86,3.48,18.8,18.8,0,0,1-.87,2.21c-2,4.28-5.23,7.09-8.89,7.17h-.17a7.46,7.46,0,0,1-2.15-.32,17.33,17.33,0,0,0,6.3,1.2C317.51,134,329,116.27,329,94.36s-11.49-39.67-25.66-39.67" transform="translate(-17.78 0)"/><path class="cls-3" d="M808.37,107.64c4.16,0,7.64-2.65,7.64-7.91s-3.25-8.65-7.87-8.65-7.31,3.73-7.31,8.2c0,4.63,2.86,8.36,7.54,8.36m15.91-22.77v29h-8.5v-4.24a10.51,10.51,0,0,1-9.18,4.86c-8.9,0-14.27-6.78-14.27-15.26,0-8.14,5-15,14.1-15a11.76,11.76,0,0,1,9.35,4.58V84.87Z" transform="translate(-17.78 0)"/></g><polygon class="cls-3" points="831.49 113.86 823.04 113.86 810.78 84.87 820.08 84.87 827.21 104.42 834.4 84.87 843.7 84.87 831.49 113.86"/><g class="cls-2"><path class="cls-3" d="M888.75,71.47l-8.45,9.78h-6.16l5.65-9.78ZM871.12,96.23h14.66c-.57-3.73-4.39-5.15-7.25-5.15s-6.39,1.25-7.41,5.15m21.79,12.54a18.44,18.44,0,0,1-13.63,5.71c-10.84,0-16.78-6.73-16.78-15,0-8.53,6.73-15.26,16.15-15.26,8.1,0,15.86,5.54,15.86,17.07H871c.17,3.62,3.53,6.28,8.95,6.28a12.46,12.46,0,0,0,8.11-3.45Z" transform="translate(-17.78 0)"/><path class="cls-3" d="M926.17,98.32v15.54h-8.44V98.26c0-4-1.14-7.06-4.91-7.06S908,94.42,908,98.32v15.54h-8.5v-29H908v3.95a9.27,9.27,0,0,1,7.82-4.58c4.45,0,7.47,1.93,9,4.86,2.23-4.23,6.45-4.86,9.25-4.86,8.21,0,10.44,6.5,10.44,13.85v15.77h-8.5V98.26c0-4-1.15-7.06-4.91-7.06s-4.85,3.22-4.85,7.12" transform="translate(-17.78 0)"/><path class="cls-3" d="M958.17,96.23h14.66c-.57-3.73-4.39-5.15-7.24-5.15s-6.39,1.25-7.42,5.15M980,108.77a18.46,18.46,0,0,1-13.64,5.71c-10.84,0-16.77-6.73-16.77-15,0-8.53,6.73-15.26,16.14-15.26,8.1,0,15.86,5.54,15.86,17.07H958c.17,3.62,3.54,6.28,9,6.28a12.46,12.46,0,0,0,8.1-3.45Z" transform="translate(-17.78 0)"/><path class="cls-3" d="M986.52,84.87H995v3.95a10.45,10.45,0,0,1,9.07-4.58c8.22,0,10.44,6.5,10.44,13.85v15.77H1006V98.26c0-4-1.48-7.06-5.42-7.06S995,94.3,995,98.32v15.54h-8.5Z" transform="translate(-17.78 0)"/><path class="cls-3" d="M1032,84.87h8.1v6.61H1032V105c0,1.25.51,2.55,2.17,2.55s2.22-1.36,2.22-2.72a9.09,9.09,0,0,0-.4-2.48h6.74a8.47,8.47,0,0,1,.68,3.44c0,4.3-2.85,8.65-9.76,8.65-5.13,0-10.15-1.81-10.15-10.23V91.48h-4.39V84.87h5l1.31-7.12H1032Z" transform="translate(-17.78 0)"/><path class="cls-3" d="M771.89,105.9a13,13,0,0,0-2.6-7.52,14.21,14.21,0,0,0-11.45-5.68,14,14,0,0,0-13.6,10.07,12.92,12.92,0,0,0-.44,3.13c-.24-.28-.46-.56-.67-.85a16.74,16.74,0,0,1-3.31-10,17.34,17.34,0,0,1,11.86-16.25,18.7,18.7,0,0,1,6.16-1c9.95,0,18,7.74,18,17.29a16.81,16.81,0,0,1-4,10.83m-14-35.43c-14.16,0-25.64,11-25.64,24.6a23.89,23.89,0,0,0,2.21,10c4.81,8.78,16.81,12.07,25.7,7,.39-.22.78-.44,1.15-.69a6.58,6.58,0,0,1-3.42,1,6.48,6.48,0,0,1-2.08-.34,6.17,6.17,0,0,1-4.32-5.8,6.28,6.28,0,0,1,6.4-6.14,6.48,6.48,0,0,1,5.41,2.85,6.15,6.15,0,0,1,.37.66,10.23,10.23,0,0,1,1.23,4.75v.12a10.08,10.08,0,0,1-.37,2.71,9.64,9.64,0,0,1-.86,2.16,9.32,9.32,0,0,1-.87,1.37,11.24,11.24,0,0,1-8.88,4.45h-.17a11.78,11.78,0,0,1-2.15-.2,26.55,26.55,0,0,0,6.29.75c14.16,0,25.64-11,25.64-24.6S772,70.47,757.84,70.47" transform="translate(-17.78 0)"/><line class="cls-4" x1="309.81" y1="1.41" x2="286.28" y2="24.94"/><line class="cls-4" x1="309.81" y1="24.94" x2="286.28" y2="1.42"/><line class="cls-4" x1="666.61" y1="1.41" x2="643.08" y2="24.94"/><line class="cls-4" x1="666.61" y1="24.94" x2="643.08" y2="1.42"/><line class="cls-4" x1="1024.21" y1="1.41" x2="1000.68" y2="24.94"/><line class="cls-4" x1="1024.21" y1="24.94" x2="1000.68" y2="1.42"/><path class="cls-3" d="M558.89,156.16a28.3,28.3,0,0,0-56.58,0c-.46-.58-.91-1.17-1.34-1.78a36.29,36.29,0,1,1,57.92,1.78M530.6,81.79a51.65,51.65,0,0,0-47.18,72.65c9.67,18.43,33.84,25.33,51.75,14.66.79-.46,1.57-.93,2.32-1.45a12.75,12.75,0,0,1-6.89,2,12.89,12.89,0,1,1,10.88-19.77,13.19,13.19,0,0,1,.77,1.38,22.39,22.39,0,0,1,2.45,10c0,.08,0,.16,0,.25a22.27,22.27,0,0,1-4.22,13.09,22.37,22.37,0,0,1-17.89,9.34h-.34a22.08,22.08,0,0,1-4.33-.42A51.64,51.64,0,1,0,530.6,81.79" transform="translate(-17.78 0)"/></g><text class="cls-5" transform="translate(459.59 70.66)">av</text><text class="cls-5" transform="translate(488.94 70.66)">ément</text><text class="cls-6" transform="translate(0.02 225.9)">V<tspan class="cls-7" x="13.16" y="0">er</tspan><tspan class="cls-8" x="33.6" y="0">z</tspan><tspan class="cls-7" x="43.88" y="0">e</tspan><tspan class="cls-9" x="56.12" y="0">r</tspan><tspan class="cls-10" x="64.2" y="0">r</tspan><tspan class="cls-11" x="72.18" y="0">e das </tspan><tspan class="cls-9" x="130.8" y="0">L</tspan><tspan class="cls-7" x="142.56" y="0">ogo ni</tspan><tspan class="cls-12" x="206.34" y="0">c</tspan><tspan class="cls-11" x="217.62" y="0">ht!</tspan></text><text class="cls-13" transform="translate(356.82 237.6)">Plazie<tspan class="cls-10" x="60.22" y="0">r</tspan><tspan class="cls-14" x="68.2" y="0">e die </tspan><tspan class="cls-15" x="122.66" y="0">W</tspan><tspan x="144.08" y="0">o</tspan><tspan class="cls-16" x="156.78" y="0">r</tspan><tspan x="165.28" y="0">tma</tspan><tspan class="cls-9" x="206.66" y="0">r</tspan><tspan class="cls-17" x="214.74" y="0">k</tspan><tspan x="226.62" y="0">e ni</tspan><tspan class="cls-9" x="263.44" y="0">c</tspan><tspan x="274.74" y="0">ht </tspan></text><text class="cls-13" transform="translate(356.82 261.6)">über der Bildma<tspan class="cls-18" x="165.5" y="0">r</tspan><tspan class="cls-17" x="173.56" y="0">k</tspan><tspan x="185.44" y="0">e</tspan></text><text class="cls-13" transform="translate(714.42 237.6)">Plazie<tspan class="cls-10" x="60.22" y="0">r</tspan><tspan class="cls-14" x="68.2" y="0">e die Bildma</tspan><tspan class="cls-18" x="195.7" y="0">r</tspan><tspan class="cls-17" x="203.76" y="0">k</tspan><tspan x="215.64" y="0">e ni</tspan><tspan class="cls-12" x="252.46" y="0">c</tspan><tspan class="cls-14" x="263.74" y="0">ht </tspan></text><text class="cls-13" transform="translate(714.42 261.6)"><tspan class="cls-19">r</tspan><tspan x="7.98" y="0">e</tspan><tspan class="cls-12" x="20.22" y="0">c</tspan><tspan x="31.5" y="0">hts </tspan><tspan class="cls-20" x="68.8" y="0">n</tspan><tspan x="82.46" y="0">eben der Bildma</tspan><tspan class="cls-12" x="252.08" y="0">r</tspan><tspan class="cls-21" x="260.14" y="0">k</tspan><tspan x="272.04" y="0">e</tspan></text></g></g></svg>