<svg xmlns="http://www.w3.org/2000/svg" xmlns:xlink="http://www.w3.org/1999/xlink" viewBox="0 0 668.4 437.69"><defs><style>.cls-1,.cls-4,.cls-5{fill:none;}.cls-2{fill:#fff;}.cls-3{clip-path:url(#clip-path);}.cls-4{stroke:#1d1d1b;}.cls-5{stroke:aqua;}.cls-6,.cls-7{fill:#1d1d1b;}.cls-7{font-size:20px;font-family:Montserrat-Regular, Montserrat;}</style><clipPath id="clip-path" transform="translate(-8.06 0)"><rect class="cls-1" width="676.47" height="437.69"/></clipPath></defs><g id="Ebene_2" data-name="Ebene 2"><g id="Layer_1" data-name="Layer 1"><rect class="cls-2" x="0.5" y="0.5" width="194.08" height="194.08"/><g class="cls-3"><rect class="cls-4" x="0.5" y="0.5" width="194.08" height="194.08"/><rect class="cls-2" x="242.29" y="0.5" width="194.08" height="194.08" rx="37"/><rect class="cls-4" x="242.29" y="0.5" width="194.08" height="194.08" rx="37"/><rect class="cls-5" x="1.01" y="240.24" width="196.95" height="196.95" rx="37"/><path class="cls-2" d="M578.93,194.58a97,97,0,1,0-97-97,97,97,0,0,0,97,97" transform="translate(-8.06 0)"/><circle class="cls-4" cx="570.86" cy="97.54" r="97.04"/><circle class="cls-5" cx="99.49" cy="338.72" r="98.48"/><path class="cls-6" d="M381,124.56a33.63,33.63,0,0,0-67.24,0c-.56-.69-1.09-1.39-1.6-2.11A43.13,43.13,0,1,1,381,124.56M347.4,36.16a61.4,61.4,0,0,0-56.08,86.35c11.49,21.91,40.22,30.11,61.51,17.43.94-.54,1.87-1.11,2.76-1.72a15.32,15.32,0,1,1,4.75-21.13,16.25,16.25,0,0,1,.9,1.64,26.37,26.37,0,0,1,2.92,11.85c0,.1,0,.2,0,.3a26.51,26.51,0,0,1-.87,6.77,26.16,26.16,0,0,1-2.06,5.37,26.61,26.61,0,0,1-23.35,14.53h-.4a27.33,27.33,0,0,1-5.15-.5A61.39,61.39,0,1,0,347.4,36.16" transform="translate(-8.06 0)"/><path class="cls-6" d="M139.23,124.56a33.63,33.63,0,0,0-67.25,0c-.55-.69-1.09-1.39-1.6-2.11a43.14,43.14,0,1,1,68.85,2.11M105.6,36.16a61.4,61.4,0,0,0-56.08,86.35C61,144.42,89.75,152.62,111,139.94c.94-.54,1.86-1.11,2.76-1.72a15.32,15.32,0,1,1,4.74-21.13,14.56,14.56,0,0,1,.91,1.64,26.64,26.64,0,0,1,2.92,11.85c0,.1,0,.2,0,.3A26.43,26.43,0,0,1,119.45,143a25.83,25.83,0,0,1-2.09,3.42,26.65,26.65,0,0,1-21.27,11.11H95.7a27.17,27.17,0,0,1-5.15-.5,61.39,61.39,0,1,0,15-120.9" transform="translate(-8.06 0)"/><path class="cls-6" d="M612.55,124.56a33.63,33.63,0,0,0-67.24,0c-.56-.69-1.09-1.39-1.61-2.11a43.14,43.14,0,1,1,68.85,2.11m-33.62-88.4a61.41,61.41,0,0,0-56.09,86.35c11.5,21.91,40.23,30.11,61.52,17.43.94-.54,1.86-1.11,2.76-1.72a15.32,15.32,0,1,1,4.74-21.13,14.56,14.56,0,0,1,.91,1.64,26.51,26.51,0,0,1,2.92,11.85c0,.1,0,.2,0,.3a26.51,26.51,0,0,1-.87,6.77,26.16,26.16,0,0,1-2.06,5.37,25.83,25.83,0,0,1-2.09,3.42,26.63,26.63,0,0,1-21.26,11.11H569a27.25,27.25,0,0,1-5.15-.5,61.39,61.39,0,1,0,15.06-120.9" transform="translate(-8.06 0)"/><path class="cls-6" d="M141.3,365.84a33.75,33.75,0,0,0-67.49,0c-.55-.69-1.09-1.4-1.61-2.13a43.3,43.3,0,1,1,69.1,2.13m-33.74-88.73a61.62,61.62,0,0,0-56.29,86.67c11.54,22,40.37,30.22,61.74,17.49.94-.54,1.87-1.11,2.77-1.73a15.37,15.37,0,1,1,4.76-21.2,14.56,14.56,0,0,1,.91,1.64,26.73,26.73,0,0,1,2.93,11.9c0,.1,0,.19,0,.29a26.53,26.53,0,0,1-2.94,12.2A26.72,26.72,0,0,1,98,398.94h-.4a26.74,26.74,0,0,1-5.17-.5,61.61,61.61,0,1,0,15.12-121.34" transform="translate(-8.06 0)"/></g><line class="cls-5" x1="99.48" y1="295.43" x2="99.48" y2="332.81"/><line class="cls-5" x1="118.69" y1="295.95" x2="81.32" y2="295.95"/><line class="cls-5" x1="118.69" y1="332.3" x2="81.32" y2="332.3"/><g class="cls-3"><line class="cls-5" x1="99.48" y1="400.32" x2="99.48" y2="437.69"/></g><line class="cls-5" x1="99.48" y1="239.74" x2="99.48" y2="277.11"/><line class="cls-5" x1="198.47" y1="338.72" x2="161.09" y2="338.72"/><line class="cls-5" x1="226.29" y1="314.13" x2="100" y2="314.13"/><line class="cls-5" x1="37.89" y1="338.72" x2="0.51" y2="338.72"/><g class="cls-3"><rect class="cls-5" x="1.01" y="240.24" width="196.95" height="196.95"/></g><text class="cls-7" transform="translate(234.51 321.16)">M</text><text class="cls-7" transform="translate(9.39 358.58)">M</text><text class="cls-7" transform="translate(77.16 265.46)">M</text></g></g></svg>