<svg xmlns="http://www.w3.org/2000/svg" viewBox="0 0 817.92 663.32"><defs><style>.cls-1{font-size:61px;font-family:Montserrat-ExtraBold, Montserrat;}.cls-1,.cls-11,.cls-2,.cls-29,.cls-49,.cls-51,.cls-7{fill:#1d1d1b;}.cls-1,.cls-49{font-weight:800;}.cls-2{font-size:23px;}.cls-2,.cls-51{font-family:Montserrat-SemiBold, Montserrat;font-weight:600;}.cls-3{letter-spacing:0.01em;}.cls-4{letter-spacing:0em;}.cls-5{letter-spacing:0em;}.cls-6{letter-spacing:-0.02em;}.cls-7{font-size:24px;font-family:Industry-Medium, Industry;}.cls-11,.cls-7{font-weight:500;}.cls-8{letter-spacing:-0.02em;}.cls-9{letter-spacing:-0.02em;}.cls-10{letter-spacing:-0.02em;}.cls-11{font-size:16px;font-family:Montserrat-Medium, Montserrat;}.cls-12{letter-spacing:-0.01em;}.cls-13{letter-spacing:-0.01em;}.cls-14{letter-spacing:0.01em;}.cls-15{letter-spacing:0em;}.cls-16{letter-spacing:-0.02em;}.cls-17{letter-spacing:0em;}.cls-18{letter-spacing:-0.02em;}.cls-19{letter-spacing:-0.02em;}.cls-20{letter-spacing:0em;}.cls-21{letter-spacing:0em;}.cls-22{letter-spacing:0em;}.cls-23{letter-spacing:-0.02em;}.cls-24{letter-spacing:-0.01em;}.cls-25{letter-spacing:-0.01em;}.cls-26{letter-spacing:-0.01em;}.cls-27{letter-spacing:-0.01em;}.cls-28{letter-spacing:-0.01em;}.cls-29{font-size:18px;font-family:Industry-Book, Industry;}.cls-30{letter-spacing:-0.01em;}.cls-31{letter-spacing:-0.01em;}.cls-32{letter-spacing:0em;}.cls-33{letter-spacing:-0.01em;}.cls-34{letter-spacing:-0.01em;}.cls-35{letter-spacing:0em;}.cls-36{letter-spacing:-0.01em;}.cls-37{letter-spacing:0em;}.cls-38{letter-spacing:-0.01em;}.cls-39{letter-spacing:-0.01em;}.cls-40{letter-spacing:-0.01em;}.cls-41{letter-spacing:-0.01em;}.cls-42{letter-spacing:-0.01em;}.cls-43{letter-spacing:-0.01em;}.cls-44{letter-spacing:-0.01em;}.cls-45{letter-spacing:-0.01em;}.cls-46{letter-spacing:0em;}.cls-47{letter-spacing:-0.01em;}.cls-48{letter-spacing:-0.01em;}.cls-49{font-size:90px;font-family:Politica-BlackItalicCd, Politica;font-style:italic;}.cls-50{fill:none;stroke:#1d1d1b;stroke-width:2px;}.cls-51{font-size:25px;}.cls-52{letter-spacing:-0.05em;}.cls-53{letter-spacing:-0.02em;}.cls-54{letter-spacing:-0.01em;}.cls-55{letter-spacing:0.01em;}</style></defs><g id="Ebene_2" data-name="Ebene 2"><g id="Layer_1" data-name="Layer 1"><text class="cls-1" transform="translate(0 118.11)">THIS IS A HEADLINE!</text><text class="cls-2" transform="translate(0.25 144.98)">a<tspan class="cls-3" x="13.96" y="0">n</tspan><tspan x="29.83" y="0">d this is t</tspan><tspan class="cls-4" x="136.92" y="0">h</tspan><tspan class="cls-5" x="152.76" y="0">e Sub</tspan><tspan class="cls-4" x="219.33" y="0">h</tspan><tspan class="cls-6" x="235.17" y="0">e</tspan><tspan class="cls-3" x="249.13" y="0">a</tspan><tspan x="263.21" y="0">dli</tspan><tspan class="cls-3" x="292.3" y="0">n</tspan><tspan x="308.17" y="0">e</tspan></text><text class="cls-7" transform="translate(0.25 493.84)">AND<tspan class="cls-8" x="48.79" y="0"> </tspan><tspan x="54" y="0">THIS IS</tspan><tspan class="cls-9" x="133.27" y="0"> </tspan><tspan class="cls-10" x="138.6" y="0">A</tspan><tspan x="154.03" y="0" xml:space="preserve"> SUBHEADLINE</tspan></text><text class="cls-11" transform="translate(0.25 202.11)"><tspan class="cls-12">E</tspan><tspan x="10.61" y="0">d que </tspan><tspan class="cls-13" x="61.66" y="0">v</tspan><tspan x="70.38" y="0">erum e</tspan><tspan class="cls-14" x="128.57" y="0">t</tspan><tspan x="135.34" y="0">, quid eni sedipie</tspan><tspan class="cls-15" x="272.51" y="0">n</tspan><tspan x="283.44" y="0">dis doluptas iniatis a sitia</tspan><tspan class="cls-16" x="486.73" y="0">t</tspan><tspan class="cls-17" x="493.07" y="0">em quis quo eicia si </tspan></text><text class="cls-11" transform="translate(0.25 226.11)">dunt <tspan class="cls-18" x="43.57" y="0">v</tspan><tspan x="52.27" y="0">elib</tspan><tspan class="cls-18" x="81.9" y="0">e</tspan><tspan x="91.45" y="0">a </tspan><tspan class="cls-19" x="105.33" y="0">t</tspan><tspan x="111.68" y="0">quosa</tspan><tspan class="cls-20" x="161.17" y="0">n</tspan><tspan class="cls-21" x="172.11" y="0">dia </tspan><tspan class="cls-22" x="201.36" y="0">n</tspan><tspan x="212.29" y="0">em is u</tspan><tspan class="cls-23" x="270.91" y="0">t</tspan><tspan x="277.26" y="0">em quodi</tspan><tspan class="cls-15" x="355.55" y="0">a</tspan><tspan x="365.15" y="0">e </tspan><tspan class="cls-24" x="379.24" y="0">r</tspan><tspan x="385.71" y="0">istios as se </tspan><tspan class="cls-18" x="475.75" y="0">v</tspan><tspan class="cls-17" x="484.46" y="0">olupta que int o</tspan><tspan class="cls-25" x="613.61" y="0">c</tspan><tspan x="622.62" y="0">ca</tspan></text><text class="cls-11" transform="translate(641.56 226.11)">-</text><text class="cls-11" transform="translate(0.25 250.11)"><tspan class="cls-19">t</tspan><tspan x="6.35" y="0">en</tspan><tspan class="cls-23" x="27.04" y="0">t</tspan><tspan class="cls-21" x="33.39" y="0">o qui </tspan><tspan class="cls-26" x="78.37" y="0">r</tspan><tspan x="84.73" y="0">e </tspan><tspan class="cls-27" x="98.83" y="0">r</tspan><tspan x="105.21" y="0">es </tspan><tspan class="cls-20" x="127.33" y="0">n</tspan><tspan x="138.27" y="0">obis </tspan><tspan class="cls-27" x="176.13" y="0">r</tspan><tspan x="182.51" y="0">es eiunt </tspan><tspan class="cls-18" x="251.53" y="0">v</tspan><tspan x="260.24" y="0">e</tspan><tspan class="cls-27" x="270.03" y="0">r</tspan><tspan x="276.41" y="0">o</tspan><tspan class="cls-24" x="286.57" y="0">r</tspan><tspan x="293.04" y="0">ia possiminis</tspan><tspan class="cls-14" x="397.69" y="0">t</tspan><tspan x="404.46" y="0">, o</tspan><tspan class="cls-28" x="422.55" y="0">c</tspan><tspan x="431.58" y="0">cum quos eos audist dolo </tspan></text><text class="cls-29" transform="translate(0.25 562.11)"><tspan class="cls-30">E</tspan><tspan x="10.55" y="0">d que </tspan><tspan class="cls-31" x="59.67" y="0">v</tspan><tspan x="68.54" y="0">erum </tspan><tspan class="cls-32" x="115.27" y="0">e</tspan><tspan x="124.94" y="0">t, quid eni sedipiendis dolu</tspan><tspan class="cls-33" x="337.98" y="0">p</tspan><tspan class="cls-34" x="348.13" y="0">t</tspan><tspan class="cls-35" x="354.21" y="0">as ini</tspan><tspan class="cls-34" x="396.28" y="0">a</tspan><tspan x="406.02" y="0">tis a s</tspan><tspan class="cls-36" x="453.48" y="0">i</tspan><tspan x="457.51" y="0">ti</tspan><tspan class="cls-34" x="467.97" y="0">a</tspan><tspan class="cls-36" x="477.71" y="0">t</tspan><tspan x="483.7" y="0">em quis quo eicia si </tspan></text><text class="cls-29" transform="translate(0.25 586.1)">du<tspan class="cls-34" x="20.43" y="0">n</tspan><tspan class="cls-37" x="30.44" y="0">t </tspan><tspan class="cls-32" x="40.97" y="0">v</tspan><tspan x="49.84" y="0">elibea </tspan><tspan class="cls-38" x="102.33" y="0">t</tspan><tspan x="108.34" y="0">quosandia nem is u</tspan><tspan class="cls-36" x="264.47" y="0">t</tspan><tspan x="270.46" y="0">em quodiae ri</tspan><tspan class="cls-33" x="380.17" y="0">s</tspan><tspan x="389.28" y="0">tios as se </tspan><tspan class="cls-39" x="470.02" y="0">v</tspan><tspan x="478.9" y="0">olu</tspan><tspan class="cls-33" x="503.23" y="0">p</tspan><tspan class="cls-34" x="513.38" y="0">t</tspan><tspan x="519.47" y="0">a que i</tspan><tspan class="cls-34" x="572.41" y="0">n</tspan><tspan x="582.41" y="0">t occ</tspan><tspan class="cls-40" x="621.91" y="0">a</tspan><tspan class="cls-38" x="631.64" y="0">t</tspan><tspan x="637.65" y="0">en</tspan></text><text class="cls-29" transform="translate(657.69 586.1)">-</text><text class="cls-29" transform="translate(0.25 610.09)"><tspan class="cls-38">t</tspan><tspan x="6.01" y="0">o qui </tspan><tspan class="cls-41" x="49.28" y="0">r</tspan><tspan x="55.94" y="0">e </tspan><tspan class="cls-42" x="70.02" y="0">r</tspan><tspan x="76.7" y="0">es nobis </tspan><tspan class="cls-41" x="148.23" y="0">r</tspan><tspan x="154.89" y="0">es eiu</tspan><tspan class="cls-34" x="202.35" y="0">n</tspan><tspan class="cls-37" x="212.36" y="0">t </tspan><tspan class="cls-32" x="222.89" y="0">v</tspan><tspan x="231.76" y="0">e</tspan><tspan class="cls-43" x="241.52" y="0">r</tspan><tspan x="248.2" y="0">oria possimini</tspan><tspan class="cls-44" x="360.73" y="0">s</tspan><tspan x="369.84" y="0">t, occum quos eos audi</tspan><tspan class="cls-34" x="555.2" y="0">s</tspan><tspan x="564.32" y="0">t dolo o</tspan><tspan class="cls-34" x="623.58" y="0">p</tspan><tspan class="cls-33" x="633.75" y="0">t</tspan><tspan x="639.81" y="0">a</tspan></text><text class="cls-29" transform="translate(649.83 610.09)">-</text><text class="cls-29" transform="translate(0.25 634.09)"><tspan class="cls-38">t</tspan><tspan x="6.01" y="0">em dolu</tspan><tspan class="cls-30" x="70.32" y="0">p</tspan><tspan class="cls-45" x="80.48" y="0">tat</tspan><tspan x="102.38" y="0">a culparum vid magn</tspan><tspan class="cls-36" x="271.31" y="0">i</tspan><tspan x="275.34" y="0">t es </tspan><tspan class="cls-38" x="309.2" y="0">e</tspan><tspan class="cls-46" x="318.75" y="0">xpella nih</tspan><tspan class="cls-47" x="394.98" y="0">i</tspan><tspan x="399.02" y="0">t dolorias </tspan><tspan class="cls-47" x="478.59" y="0">e</tspan><tspan x="488.13" y="0">x </tspan><tspan class="cls-48" x="501.43" y="0">e</tspan><tspan x="511.08" y="0">t fuga. Uga. Name </tspan></text><text class="cls-29" transform="translate(0.25 658.08)">dolo<tspan class="cls-42" x="34.45" y="0">r</tspan><tspan x="41.13" y="0">e</tspan></text><text class="cls-49" transform="translate(0.25 466.11)">THIS IS A HEADLINE!</text><line class="cls-50" x1="714.65" y1="100.05" x2="817.92" y2="100.05"/><line class="cls-50" x1="714.65" y1="435.05" x2="817.92" y2="435.05"/><line class="cls-50" x1="714.65" y1="147.05" x2="817.92" y2="147.05"/><line class="cls-50" x1="714.65" y1="495.05" x2="817.92" y2="495.05"/><line class="cls-50" x1="714.65" y1="220.05" x2="817.92" y2="220.05"/><line class="cls-50" x1="714.65" y1="591.05" x2="817.92" y2="591.05"/><text class="cls-51" transform="translate(0.25 21.25)"><tspan class="cls-52">W</tspan><tspan x="27.25" y="0">ebsei</tspan><tspan class="cls-53" x="95.6" y="0">t</tspan><tspan x="105.75" y="0">e</tspan></text><text class="cls-51" transform="translate(0.25 343.35)"><tspan class="cls-52">W</tspan><tspan x="27.25" y="0">e</tspan><tspan class="cls-54" x="42.8" y="0">r</tspan><tspan x="53.17" y="0">bu</tspan><tspan class="cls-55" x="87.35" y="0">n</tspan><tspan x="104.6" y="0">g</tspan></text></g></g></svg>