<svg xmlns="http://www.w3.org/2000/svg" viewBox="0 0 1368.82 832.24"><defs><style>.cls-1,.cls-3,.cls-5,.cls-8,.cls-9{font-size:40px;}.cls-1,.cls-10,.cls-2,.cls-27,.cls-3,.cls-31,.cls-41,.cls-5,.cls-8,.cls-9{fill:#1d1d1b;}.cls-1{font-family:AntarcticanMono-Bold, Antarctican Mono;}.cls-1,.cls-3,.cls-41,.cls-8{font-weight:700;}.cls-10,.cls-2,.cls-27,.cls-31,.cls-41{font-size:35px;}.cls-2{font-family:AntarcticanMono-Medium, Antarctican Mono;}.cls-10,.cls-2,.cls-31{font-weight:500;}.cls-3{font-family:Industry-Bold, Industry;}.cls-4{letter-spacing:-0.01em;}.cls-5{font-family:FilsonProBold, Filson Pro;}.cls-6{letter-spacing:-0.01em;}.cls-7{letter-spacing:-0.01em;}.cls-8{font-family:Montserrat-Bold, Montserrat;}.cls-9{font-family:Politica-ExtraBold, Politica;font-weight:800;}.cls-10{font-family:Industry-Medium, Industry;}.cls-11{letter-spacing:-0.01em;}.cls-12{letter-spacing:-0.01em;}.cls-13{letter-spacing:0.01em;}.cls-14{letter-spacing:0em;}.cls-15{letter-spacing:-0.01em;}.cls-16{letter-spacing:-0.01em;}.cls-17{letter-spacing:0em;}.cls-18{letter-spacing:0em;}.cls-19{letter-spacing:0em;}.cls-20{letter-spacing:0em;}.cls-21{letter-spacing:0em;}.cls-22{letter-spacing:-0.01em;}.cls-23{letter-spacing:0em;}.cls-24{letter-spacing:0em;}.cls-25{letter-spacing:0em;}.cls-26{letter-spacing:-0.01em;}.cls-27{font-family:FilsonProMedium, Filson Pro;}.cls-28{letter-spacing:-0.01em;}.cls-29{letter-spacing:-0.02em;}.cls-30{letter-spacing:-0.01em;}.cls-31{font-family:Montserrat-Medium, Montserrat;}.cls-32{letter-spacing:-0.01em;}.cls-33{letter-spacing:-0.01em;}.cls-34{letter-spacing:0em;}.cls-35{letter-spacing:0em;}.cls-36{letter-spacing:-0.03em;}.cls-37{letter-spacing:-0.03em;}.cls-38{letter-spacing:-0.01em;}.cls-39{letter-spacing:-0.02em;}.cls-40{letter-spacing:-0.03em;}.cls-41{font-family:Politica-Bold, Politica;}</style></defs><g id="Ebene_2" data-name="Ebene 2"><g id="Layer_1" data-name="Layer 1"><text class="cls-1" transform="translate(0 668.6)">Antarctican Mono</text><text class="cls-2" transform="translate(0 728.6)">abcdefghijklmnopqrstuwxyz</text><text class="cls-2" transform="translate(0 776.59)">ABCDEFGHIJKLMNOPQRSTUVWXYZ</text><text class="cls-2" transform="translate(0 824.57)">1234567890 .,!?%&amp;</text><text class="cls-3" transform="translate(0 34)">Indu<tspan class="cls-4" x="81.64" y="0">s</tspan><tspan x="102.4" y="0">try</tspan></text><text class="cls-5" transform="translate(0 354.16)">Filson <tspan class="cls-6" x="124.52" y="0">P</tspan><tspan class="cls-7" x="150.04" y="0">r</tspan><tspan x="165.88" y="0">o</tspan></text><text class="cls-8" transform="translate(714.54 354.16)">Montserrat</text><text class="cls-9" transform="translate(714.55 42.16)">Political</text><text class="cls-10" transform="translate(0 102.14)">abcd<tspan class="cls-11" x="78.01" y="0">e</tspan><tspan class="cls-12" x="96.84" y="0">f</tspan><tspan x="109.48" y="0">gh</tspan><tspan class="cls-13" x="149.48" y="0">i</tspan><tspan class="cls-14" x="158.65" y="0">jklmnopq</tspan><tspan class="cls-15" x="304.22" y="0">r</tspan><tspan class="cls-16" x="317.8" y="0">s</tspan><tspan class="cls-17" x="335.68" y="0">t</tspan><tspan x="348.14" y="0">u</tspan><tspan class="cls-18" x="368.02" y="0">v</tspan><tspan class="cls-19" x="386.04" y="0">w</tspan><tspan class="cls-20" x="412.64" y="0">x</tspan><tspan class="cls-21" x="430.56" y="0">yz</tspan></text><text class="cls-10" transform="translate(0 150.13)">ABCDE<tspan class="cls-16" x="111.75" y="0">F</tspan><tspan x="131.74" y="0">GHIJKLMNOPQR</tspan><tspan class="cls-22" x="395.32" y="0">S</tspan><tspan x="416.81" y="0">TU</tspan><tspan class="cls-23" x="459.93" y="0">V</tspan><tspan class="cls-24" x="482.01" y="0">W</tspan><tspan class="cls-25" x="514.18" y="0">XY</tspan><tspan x="556.84" y="0">Z</tspan></text><text class="cls-10" transform="translate(0 198.11)">12345<tspan class="cls-26" x="98.59" y="0">67</tspan><tspan x="138.81" y="0">890 .,!?%&amp;</tspan></text><text class="cls-27" transform="translate(0 414.1)">ab<tspan class="cls-11" x="45.53" y="0">c</tspan><tspan x="64.12" y="0">d</tspan><tspan class="cls-28" x="86.9" y="0">e</tspan><tspan class="cls-29" x="107.9" y="0">f</tspan><tspan x="120.82" y="0">ghijklmnopqrstuwxyz</tspan></text><text class="cls-27" transform="translate(0 462.08)">ABCDE<tspan class="cls-30" x="118.26" y="0">F</tspan><tspan x="138.46" y="0">GHIJKLMNOPQRSTUVWXYZ</tspan></text><text class="cls-27" transform="translate(0 510.07)">1234567890 .,!?%&amp;</text><text class="cls-31" transform="translate(714.54 426.07)">ab<tspan class="cls-32" x="44.8" y="0">c</tspan><tspan x="64.54" y="0">de</tspan><tspan class="cls-33" x="109.83" y="0">f</tspan><tspan x="121.94" y="0">ghijklm</tspan><tspan class="cls-34" x="257.95" y="0">n</tspan><tspan x="281.89" y="0">opq</tspan><tspan class="cls-35" x="351.85" y="0">r</tspan><tspan x="366.13" y="0">stu</tspan><tspan class="cls-36" x="421.85" y="0">w</tspan><tspan class="cls-37" x="452.3" y="0">x</tspan><tspan class="cls-15" x="470.57" y="0">y</tspan><tspan x="489.82" y="0">z</tspan></text><text class="cls-31" transform="translate(714.54 474.05)">ABCDE<tspan class="cls-33" x="129.78" y="0">F</tspan><tspan x="151.76" y="0">GHIJKLMNOPQR</tspan><tspan class="cls-15" x="453.32" y="0">S</tspan><tspan class="cls-38" x="474.73" y="0">T</tspan><tspan x="494.86" y="0">UV</tspan><tspan class="cls-39" x="547.46" y="0">W</tspan><tspan class="cls-40" x="586.1" y="0">X</tspan><tspan x="608.64" y="0">YZ</tspan></text><text class="cls-31" transform="translate(714.54 522.04)">123<tspan class="cls-35" x="53.06" y="0">4</tspan><tspan class="cls-24" x="76.4" y="0">5</tspan><tspan class="cls-30" x="96.49" y="0">6</tspan><tspan class="cls-29" x="117.88" y="0">7</tspan><tspan x="138.21" y="0">890 .</tspan><tspan class="cls-23" x="223.05" y="0">,</tspan><tspan x="231.07" y="0">!?%&amp;</tspan></text><text class="cls-41" transform="translate(714.54 102.04)">abcdefghijklmnopqrstuvwxyz</text><text class="cls-41" transform="translate(714.54 150.02)">ABCDEFGHIJKLMNOPQRSTUVWXYZ</text><text class="cls-41" transform="translate(714.54 198.01)">1234567890 .,!?%&amp;</text></g></g></svg>