<svg xmlns="http://www.w3.org/2000/svg" xmlns:xlink="http://www.w3.org/1999/xlink" viewBox="0 0 247.55 78.36"><defs><style>.cls-1{fill:none;}.cls-2{clip-path:url(#clip-path);}.cls-3{font-size:3.64px;font-family:Montserrat-SemiBold, Montserrat;font-weight:600;}.cls-10,.cls-3,.cls-9{fill:#1d1d1b;}.cls-4{letter-spacing:0em;}.cls-5{letter-spacing:-0.05em;}.cls-6{letter-spacing:0.02em;}.cls-7{letter-spacing:0em;}.cls-8{letter-spacing:-0.02em;}.cls-10{font-size:10.44px;font-family:FilsonProBold, Filson Pro;}.cls-11{letter-spacing:0em;}.cls-12{letter-spacing:-0.06em;}.cls-13{letter-spacing:0.01em;}.cls-14{letter-spacing:0em;}.cls-15{letter-spacing:-0.02em;}.cls-16{letter-spacing:0em;}.cls-17{letter-spacing:0em;}.cls-18{letter-spacing:-0.02em;}.cls-19{letter-spacing:0em;}</style><clipPath id="clip-path" transform="translate(-3.32 -1.7)"><rect class="cls-1" width="254.92" height="76.87"/></clipPath></defs><g id="Ebene_2" data-name="Ebene 2"><g id="Layer_1" data-name="Layer 1"><g class="cls-2"><path d="M6.25,28.51A1.35,1.35,0,0,0,7.65,27a1.43,1.43,0,0,0-1.44-1.59A1.36,1.36,0,0,0,4.87,27a1.41,1.41,0,0,0,1.38,1.55M9.16,24.3v5.35H7.61v-.78a1.93,1.93,0,0,1-1.68.9A2.6,2.6,0,0,1,3.32,27,2.54,2.54,0,0,1,5.9,24.18,2.15,2.15,0,0,1,7.61,25V24.3Z" transform="translate(-3.32 -1.7)"/></g><polygon points="10.42 27.95 8.88 27.95 6.63 22.59 8.33 22.59 9.64 26.21 10.96 22.59 12.66 22.59 10.42 27.95"/><g class="cls-2"><path d="M21,21.82l-1.55,1.81H18.29l1-1.81ZM17.74,26.4h2.68a1.25,1.25,0,0,0-1.32-.95,1.33,1.33,0,0,0-1.36.95m4,2.31a3.36,3.36,0,0,1-2.5,1.06A2.77,2.77,0,0,1,16.16,27a2.82,2.82,0,0,1,3-2.82A2.88,2.88,0,0,1,22,27.34H17.71c0,.66.64,1.16,1.64,1.16a2.3,2.3,0,0,0,1.48-.64Z" transform="translate(-3.32 -1.7)"/><path d="M27.82,26.78v2.87H26.27V26.77c0-.73-.21-1.3-.9-1.3s-.89.59-.89,1.31v2.87H22.93V24.3h1.55V25a1.79,1.79,0,0,1,3.08,0,1.77,1.77,0,0,1,1.69-.9c1.5,0,1.91,1.2,1.91,2.56v2.91H29.6V26.77c0-.73-.21-1.3-.9-1.3s-.88.59-.88,1.31" transform="translate(-3.32 -1.7)"/><path d="M33.67,26.4h2.69A1.26,1.26,0,0,0,35,25.45a1.33,1.33,0,0,0-1.36.95m4,2.31a3.34,3.34,0,0,1-2.49,1.06A2.76,2.76,0,0,1,32.1,27a2.82,2.82,0,0,1,2.95-2.82A2.88,2.88,0,0,1,38,27.34H33.64c0,.66.65,1.16,1.64,1.16a2.31,2.31,0,0,0,1.49-.64Z" transform="translate(-3.32 -1.7)"/><path d="M38.87,24.3h1.55V25a1.9,1.9,0,0,1,1.66-.85c1.51,0,1.91,1.2,1.91,2.56v2.91H42.44V26.77c0-.74-.27-1.3-1-1.3s-1,.57-1,1.31v2.87H38.87Z" transform="translate(-3.32 -1.7)"/><path d="M47.19,24.3h1.48v1.22H47.19V28c0,.23.09.47.4.47s.4-.26.4-.51a1.86,1.86,0,0,0-.07-.46h1.23a1.5,1.5,0,0,1,.13.64,1.59,1.59,0,0,1-1.79,1.6c-.94,0-1.86-.33-1.86-1.89V25.52h-.8V24.3h.92L46,23h1.2Z" transform="translate(-3.32 -1.7)"/><path d="M57.88,28.18a2.51,2.51,0,0,0-.46-1.39,2.5,2.5,0,0,0-4.44.82,2.61,2.61,0,0,0-.08.57L52.78,28a3.25,3.25,0,0,1-.58-1.85,3.18,3.18,0,0,1,2.1-3A3,3,0,0,1,55.39,23a3.19,3.19,0,0,1,2.49,5.19m-2.49-6.54A4.55,4.55,0,0,0,51.24,28a3.31,3.31,0,0,0,4.56,1.29l.2-.12a1.14,1.14,0,1,1-.61-2.1,1.12,1.12,0,0,1,1,.53.75.75,0,0,1,.07.12,2.16,2.16,0,0,1,.22.88v0a2.08,2.08,0,0,1-.07.5,2.37,2.37,0,0,1-.15.4,2.13,2.13,0,0,1-.16.25,1.94,1.94,0,0,1-1.57.83h0a2.33,2.33,0,0,1-.38,0,4.5,4.5,0,0,0,1.11.14,4.55,4.55,0,1,0,0-9.09" transform="translate(-3.32 -1.7)"/></g><text class="cls-3" transform="translate(0 3.09)">Bild u<tspan class="cls-4" x="10.85" y="0">n</tspan><tspan x="13.36" y="0">d </tspan><tspan class="cls-5" x="16.87" y="0">W</tspan><tspan x="20.83" y="0">o</tspan><tspan class="cls-6" x="23.18" y="0">r</tspan><tspan x="24.76" y="0">tma</tspan><tspan class="cls-7" x="32.35" y="0">r</tspan><tspan class="cls-8" x="33.86" y="0">k</tspan><tspan x="36.1" y="0">e</tspan></text><g class="cls-2"><path class="cls-9" d="M174,52a12.75,12.75,0,0,0-2.29-7A12.34,12.34,0,0,0,149.61,49a12.69,12.69,0,0,0-.39,2.92c-.21-.26-.4-.52-.59-.79a16.28,16.28,0,0,1,7.55-24.51,15.84,15.84,0,0,1,5.44-1,16,16,0,0,1,15.91,16.15A16.27,16.27,0,0,1,174,52m-12.4-33.1a22.81,22.81,0,0,0-22.64,23,23.26,23.26,0,0,0,2,9.35,16.34,16.34,0,0,0,22.69,6.52c.35-.2.69-.41,1-.64a5.59,5.59,0,0,1-4.86.58,5.75,5.75,0,0,1,1.84-11.16,5.63,5.63,0,0,1,4.77,2.67c.12.2.23.4.33.61a10,10,0,0,1,1.08,4.44v.11a10,10,0,0,1-1.08,4.55,9.24,9.24,0,0,1-.77,1.28,9.79,9.79,0,0,1-7.84,4.16H158a10,10,0,0,1-1.9-.19,22.18,22.18,0,0,0,5.56.7,23,23,0,0,0,0-46" transform="translate(-3.32 -1.7)"/><text class="cls-10" transform="translate(134.97 75.05) scale(1 1.01)">av</text><text class="cls-10" transform="translate(147.83 75.05) scale(1 1.01)">ément</text></g><text class="cls-3" transform="translate(129.99 5.02)">Bild u<tspan class="cls-11" x="10.85" y="0">n</tspan><tspan x="13.36" y="0">d </tspan><tspan class="cls-12" x="16.87" y="0">W</tspan><tspan x="20.83" y="0">o</tspan><tspan class="cls-13" x="23.18" y="0">r</tspan><tspan x="24.76" y="0">tma</tspan><tspan class="cls-14" x="32.34" y="0">r</tspan><tspan class="cls-15" x="33.85" y="0">k</tspan><tspan x="36.09" y="0">e</tspan></text><g class="cls-2"><path d="M76.2,29.37a1.37,1.37,0,0,0,1.43-1.49,1.46,1.46,0,0,0-1.47-1.63A1.4,1.4,0,0,0,74.8,27.8a1.43,1.43,0,0,0,1.4,1.57m3-4.29v5.46H77.59v-.8a2,2,0,0,1-1.72.92,2.65,2.65,0,0,1-2.66-2.87A2.59,2.59,0,0,1,75.84,25a2.21,2.21,0,0,1,1.75.86v-.75Z" transform="translate(-3.32 -1.7)"/></g><polygon points="80.52 28.84 78.94 28.84 76.65 23.38 78.39 23.38 79.72 27.06 81.06 23.38 82.79 23.38 80.52 28.84"/><g class="cls-2"><path d="M91.19,22.56,89.62,24.4H88.47l1-1.84ZM87.9,27.22h2.74a1.28,1.28,0,0,0-1.35-1,1.37,1.37,0,0,0-1.39,1M92,29.58a3.4,3.4,0,0,1-2.54,1.08,2.82,2.82,0,0,1-3.13-2.82,2.87,2.87,0,0,1,3-2.87,2.93,2.93,0,0,1,3,3.21h-4.4c0,.68.66,1.18,1.67,1.18a2.3,2.3,0,0,0,1.51-.65Z" transform="translate(-3.32 -1.7)"/><path d="M98.17,27.62v2.92H96.6V27.61c0-.75-.22-1.33-.92-1.33s-.9.6-.9,1.34v2.92H93.19V25.08h1.59v.75a1.82,1.82,0,0,1,3.12.05A1.81,1.81,0,0,1,99.63,25c1.53,0,2,1.22,2,2.6v3H100V27.61c0-.75-.21-1.33-.92-1.33s-.9.6-.9,1.34" transform="translate(-3.32 -1.7)"/><path d="M104.14,27.22h2.73a1.28,1.28,0,0,0-1.35-1,1.36,1.36,0,0,0-1.38,1m4.06,2.36a3.39,3.39,0,0,1-2.54,1.08,2.82,2.82,0,0,1-3.13-2.82,2.87,2.87,0,0,1,3-2.87,2.93,2.93,0,0,1,3,3.21h-4.39c0,.68.66,1.18,1.67,1.18a2.34,2.34,0,0,0,1.51-.65Z" transform="translate(-3.32 -1.7)"/><path d="M109.43,25.08H111v.75A1.93,1.93,0,0,1,112.7,25c1.53,0,2,1.22,2,2.6v3h-1.59V27.61c0-.76-.27-1.33-1-1.33s-1,.58-1,1.34v2.92h-1.58Z" transform="translate(-3.32 -1.7)"/><path d="M117.9,25.08h1.51v1.25H117.9v2.55c0,.24.1.48.41.48s.41-.25.41-.51a1.87,1.87,0,0,0-.07-.47h1.25A1.54,1.54,0,0,1,120,29a1.62,1.62,0,0,1-1.82,1.63c-.95,0-1.89-.34-1.89-1.93v-2.4h-.82V25.08h.94l.24-1.34h1.22Z" transform="translate(-3.32 -1.7)"/></g><text class="cls-3" transform="translate(64.99 5.02)"><tspan class="cls-12">W</tspan><tspan x="3.96" y="0">o</tspan><tspan class="cls-6" x="6.31" y="0">r</tspan><tspan x="7.89" y="0">tma</tspan><tspan class="cls-14" x="15.48" y="0">r</tspan><tspan class="cls-15" x="16.99" y="0">k</tspan><tspan class="cls-16" x="19.23" y="0">e</tspan></text><g class="cls-2"><path class="cls-9" d="M240.3,52.42a13,13,0,0,0-2.36-7.24,12.73,12.73,0,0,0-22.82,4.23,13.48,13.48,0,0,0-.4,3c-.21-.26-.42-.54-.61-.82a16.79,16.79,0,0,1,7.79-25.28,16.3,16.3,0,0,1,5.61-1A16.71,16.71,0,0,1,240.3,52.42M227.51,18.28A23.53,23.53,0,0,0,204.15,42a24,24,0,0,0,2,9.64,16.86,16.86,0,0,0,23.41,6.73c.35-.21.71-.43,1-.66a5.73,5.73,0,0,1-3.12.91,5.64,5.64,0,0,1-1.89-.32,5.93,5.93,0,0,1,1.89-11.51,5.79,5.79,0,0,1,4.92,2.76,6.37,6.37,0,0,1,.35.63,10.45,10.45,0,0,1,1.11,4.58v.11a10.34,10.34,0,0,1-.33,2.62,10.51,10.51,0,0,1-.78,2.07,10.3,10.3,0,0,1-.8,1.32,10.09,10.09,0,0,1-8.09,4.29h-.15a9.72,9.72,0,0,1-2-.2,23,23,0,0,0,5.73.72,23.71,23.71,0,0,0,0-47.41" transform="translate(-3.32 -1.7)"/></g><text class="cls-3" transform="translate(194.98 5.02)">Bildma<tspan class="cls-17" x="13.41" y="0">r</tspan><tspan class="cls-18" x="14.93" y="0">k</tspan><tspan class="cls-19" x="17.16" y="0">e</tspan></text></g></g></svg>