<svg xmlns="http://www.w3.org/2000/svg" xmlns:xlink="http://www.w3.org/1999/xlink" viewBox="0 0 903.89 442"><defs><style>.cls-1{fill:none;}.cls-2{clip-path:url(#clip-path);}.cls-3{fill:#1d1d1b;}</style><clipPath id="clip-path" transform="translate(0)"><rect class="cls-1" width="903.89" height="442"/></clipPath></defs><g id="Ebene_2" data-name="Ebene 2"><g id="Layer_1" data-name="Layer 1"><g class="cls-2"><path class="cls-3" d="M23.46,254.51c6.09,0,11.19-3.89,11.19-11.58,0-7.86-4.76-12.66-11.52-12.66s-10.69,5.46-10.69,12c0,6.78,4.17,12.24,11,12.24m23.29-33.33V263.6H34.31v-6.2c-3.09,4.38-7.18,7.11-13.44,7.11-13,0-20.87-9.92-20.87-22.33,0-11.91,7.26-21.91,20.62-21.91A17.19,17.19,0,0,1,34.31,227v-5.79Z" transform="translate(0)"/><path class="cls-3" d="M46.92,108.8c12.19,0,22.38-7.78,22.38-23.16,0-15.71-9.52-25.31-23-25.31-13.69,0-21.37,10.92-21.37,24,0,13.56,8.35,24.48,22,24.48M93.51,42.14V127H68.63v-12.4c-6.18,8.76-14.36,14.22-26.89,14.22C15.7,128.81,0,109,0,84.15,0,60.33,14.53,40.32,41.24,40.32a34.4,34.4,0,0,1,27.39,13.4V42.14Z" transform="translate(0)"/></g><polygon class="cls-3" points="83.32 263.6 70.96 263.6 53.01 221.18 66.62 221.18 77.06 249.79 87.58 221.18 101.18 221.18 83.32 263.6"/><polygon class="cls-3" points="166.63 126.99 141.92 126.99 106.02 42.14 133.24 42.14 154.11 99.37 175.15 42.14 202.37 42.14 166.63 126.99"/><g class="cls-2"><path class="cls-3" d="M141.09,201.58l-12.36,14.3h-9l8.27-14.3Zm-25.8,36.22h21.46c-.84-5.46-6.43-7.53-10.61-7.53-4,0-9.35,1.82-10.85,7.53m31.89,18.36c-6.09,6.62-14.19,8.35-20,8.35-15.87,0-24.55-9.84-24.55-21.91,0-12.49,9.85-22.33,23.63-22.33,11.86,0,23.21,8.1,23.21,25H115c.25,5.3,5.17,9.18,13.11,9.18a18.18,18.18,0,0,0,11.85-5Z" transform="translate(0)"/><path class="cls-3" d="M282.18,2.94,257.46,31.55h-18L256,2.94Zm-51.6,72.44h42.91c-1.67-10.91-12.86-15-21.2-15-8,0-18.71,3.64-21.71,15m63.78,36.72c-12.18,13.24-28.38,16.71-39.9,16.71-31.73,0-49.1-19.68-49.1-43.83,0-25,19.71-44.66,47.26-44.66,23.71,0,46.42,16.21,46.42,49.95h-69c.5,10.59,10.35,18.36,26.21,18.36,8.85,0,17.7-4.46,23.71-10.09Z" transform="translate(0)"/><path class="cls-3" d="M195.85,240.86V263.6H183.49V240.78c0-5.79-1.67-10.34-7.18-10.34s-7.09,4.71-7.09,10.42V263.6H156.78V221.18h12.44V227c2.75-4.22,6.76-6.7,11.44-6.7,6.51,0,10.93,2.81,13.1,7.11,3.26-6.2,9.44-7.11,13.53-7.11,12,0,15.28,9.51,15.28,20.26V263.6H210.13V240.78c0-5.79-1.67-10.34-7.18-10.34s-7.1,4.71-7.1,10.42" transform="translate(0)"/><path class="cls-3" d="M391.7,81.51V127H367V81.34c0-11.58-3.34-20.68-14.36-20.68-10.85,0-14.19,9.43-14.19,20.85V127H313.56V42.14h24.88V53.72c5.51-8.44,13.52-13.4,22.87-13.4,13,0,21.88,5.62,26.22,14.23C394,42.14,406.4,40.32,414.58,40.32c24,0,30.55,19,30.55,40.52V127H420.26V81.34c0-11.58-3.34-20.68-14.36-20.68-10.86,0-14.2,9.43-14.2,20.85" transform="translate(0)"/><path class="cls-3" d="M242.68,237.8h21.46c-.84-5.46-6.43-7.53-10.6-7.53-4,0-9.36,1.82-10.86,7.53m31.89,18.36c-6.09,6.62-14.19,8.35-19.95,8.35-15.86,0-24.55-9.84-24.55-21.91,0-12.49,9.86-22.33,23.63-22.33,11.86,0,23.21,8.1,23.21,25H242.43c.25,5.3,5.18,9.18,13.11,9.18a18.18,18.18,0,0,0,11.85-5Z" transform="translate(0)"/><path class="cls-3" d="M485.36,75.38h42.92c-1.68-10.91-12.86-15-21.21-15-8,0-18.7,3.64-21.71,15m63.79,36.72c-12.19,13.24-28.39,16.71-39.91,16.71-31.73,0-49.09-19.68-49.09-43.83,0-25,19.7-44.66,47.25-44.66,23.71,0,46.43,16.21,46.43,49.95h-69c.5,10.59,10.36,18.36,26.22,18.36,8.85,0,17.7-4.46,23.71-10.09Z" transform="translate(0)"/><path class="cls-3" d="M284.17,221.18h12.44V227a15.26,15.26,0,0,1,13.28-6.7c12,0,15.27,9.51,15.27,20.26V263.6H312.72V240.78c0-5.87-2.17-10.34-7.93-10.34s-8.18,4.55-8.18,10.42V263.6H284.17Z" transform="translate(0)"/><path class="cls-3" d="M568.34,42.14h24.88V53.72c7.18-9.93,16.2-13.4,26.55-13.4,24,0,30.56,19,30.56,40.52V127H625.45V81.34c0-11.74-4.34-20.68-15.87-20.68s-16.36,9.1-16.36,20.85V127H568.34Z" transform="translate(0)"/><path class="cls-3" d="M350.71,221.18h11.85v9.67H350.71V250.7c0,1.82.75,3.72,3.17,3.72s3.25-2,3.25-4a13.22,13.22,0,0,0-.58-3.63h9.85a12.34,12.34,0,0,1,1,5c0,6.29-4.17,12.65-14.27,12.65-7.52,0-14.86-2.64-14.86-15V230.85h-6.43v-9.67h7.34l1.92-10.42h9.61Z" transform="translate(0)"/><path class="cls-3" d="M701.41,42.14h23.71V61.49H701.41v39.7c0,3.64,1.51,7.44,6.35,7.44s6.51-4,6.51-7.94a26.48,26.48,0,0,0-1.17-7.27h19.71a24.73,24.73,0,0,1,2,10.09c0,12.56-8.35,25.3-28.55,25.3-15,0-29.73-5.29-29.73-29.94V61.49H663.68V42.14h14.69l3.84-20.84h19.2Z" transform="translate(0)"/><path class="cls-3" d="M435.67,252a19.73,19.73,0,0,0-38.81-4.58,19.24,19.24,0,0,0-.63,4.58c-.33-.41-.64-.82-.94-1.24A25.3,25.3,0,1,1,435.67,252M416,200.11a36,36,0,0,0-32.9,50.65c6.75,12.85,23.6,17.65,36.08,10.22.55-.32,1.1-.66,1.62-1a8.88,8.88,0,0,1-4.8,1.4,8.77,8.77,0,0,1-2.92-.49,9,9,0,1,1,11-12.34,15.63,15.63,0,0,1,1.71,7v.17a15.32,15.32,0,0,1-.51,4,15.61,15.61,0,0,1-1.2,3.16,15.1,15.1,0,0,1-1.23,2,15.59,15.59,0,0,1-12.47,6.51h-.24a15.09,15.09,0,0,1-3-.3,36,36,0,1,0,8.84-70.9" transform="translate(0)"/><path class="cls-3" d="M871.33,103.7a39.46,39.46,0,0,0-77.62-9.15,39.91,39.91,0,0,0-1.26,9.15c-.65-.81-1.27-1.64-1.87-2.48a50.6,50.6,0,1,1,80.75,2.48M831.89,0a72,72,0,0,0-65.78,101.3c13.48,25.7,47.19,35.31,72.16,20.44,1.1-.64,2.18-1.31,3.23-2a17.94,17.94,0,1,1,6.63-22.86,31.25,31.25,0,0,1,3.43,13.91c0,.11,0,.23,0,.34a31.55,31.55,0,0,1-1,8,31.33,31.33,0,0,1-29.81,23.34h-.47a30.78,30.78,0,0,1-6-.59A72,72,0,1,0,831.89,0" transform="translate(0)"/><path class="cls-3" d="M11.73,353.07c3,0,5.59-1.95,5.59-5.79S14.94,341,11.56,341s-5.34,2.73-5.34,6,2.09,6.12,5.51,6.12M23.38,336.4v21.22H17.16v-3.11a7.68,7.68,0,0,1-6.72,3.56c-6.52,0-10.44-5-10.44-11.16,0-6,3.63-11,10.31-11a8.59,8.59,0,0,1,6.85,3.35v-2.9Z" transform="translate(0)"/></g><polygon class="cls-3" points="41.66 357.62 35.48 357.62 26.51 336.4 33.31 336.4 38.53 350.71 43.79 336.4 50.59 336.4 41.66 357.62"/><g class="cls-2"><path class="cls-3" d="M70.54,326.6l-6.17,7.16H59.86L64,326.6Zm-12.9,18.11H68.37C68,342,65.16,341,63.07,341a5.32,5.32,0,0,0-5.43,3.76m16,9.18a13.5,13.5,0,0,1-10,4.18c-7.93,0-12.27-4.92-12.27-11,0-6.24,4.93-11.16,11.81-11.16,5.93,0,11.61,4.05,11.61,12.49H57.52c.12,2.64,2.59,4.59,6.55,4.59A9.07,9.07,0,0,0,70,350.5Z" transform="translate(0)"/><path class="cls-3" d="M97.93,346.24v11.37H91.75V346.2c0-2.89-.84-5.17-3.59-5.17s-3.55,2.36-3.55,5.21v11.37H78.39V336.4h6.22v2.9A6.78,6.78,0,0,1,90.33,336c3.25,0,5.47,1.4,6.55,3.55,1.63-3.1,4.72-3.55,6.76-3.55,6,0,7.64,4.75,7.64,10.13v11.53h-6.22V346.2c0-2.89-.83-5.17-3.59-5.17s-3.54,2.36-3.54,5.21" transform="translate(0)"/><path class="cls-3" d="M121.34,344.71h10.73c-.42-2.73-3.22-3.76-5.3-3.76a5.31,5.31,0,0,0-5.43,3.76m15.95,9.18a13.5,13.5,0,0,1-10,4.18c-7.93,0-12.27-4.92-12.27-11C115,340.87,120,336,126.85,336c5.93,0,11.61,4.05,11.61,12.49H121.22c.12,2.64,2.58,4.59,6.55,4.59a9.11,9.11,0,0,0,5.93-2.53Z" transform="translate(0)"/><path class="cls-3" d="M142.09,336.4h6.22v2.9a7.62,7.62,0,0,1,6.63-3.35c6,0,7.64,4.75,7.64,10.13v11.54h-6.22V346.2c0-2.93-1.08-5.17-4-5.17s-4.09,2.28-4.09,5.21v11.38h-6.22Z" transform="translate(0)"/><path class="cls-3" d="M175.35,336.4h5.93v4.84h-5.93v9.92c0,.91.38,1.87,1.59,1.87s1.63-1,1.63-2a6.85,6.85,0,0,0-.29-1.82h4.92a6.12,6.12,0,0,1,.5,2.52c0,3.15-2.09,6.33-7.14,6.33-3.75,0-7.43-1.32-7.43-7.48v-9.35h-3.21V336.4h3.67l1-5.21h4.8Z" transform="translate(0)"/><path class="cls-3" d="M217.83,351.79a9.86,9.86,0,0,0-19.4-2.29,10.2,10.2,0,0,0-.32,2.29c-.16-.2-.32-.41-.47-.62a12.65,12.65,0,1,1,20.19.62M208,325.87a18,18,0,0,0-16.44,25.32,13.09,13.09,0,0,0,18,5.11c.27-.16.54-.32.81-.5a4.49,4.49,0,0,1-2.41.69,4.43,4.43,0,0,1-1.46-.24,4.49,4.49,0,1,1,5.26-6.65,3.67,3.67,0,0,1,.26.48,7.72,7.72,0,0,1,.86,3.48v.08a8.1,8.1,0,0,1-.25,2,8,8,0,0,1-.61,1.58,7.82,7.82,0,0,1-6.85,4.26h-.11a7.51,7.51,0,0,1-1.51-.15,17.82,17.82,0,0,0,4.41.55,18,18,0,1,0,0-36" transform="translate(0)"/><path class="cls-3" d="M5.87,437.6a2.67,2.67,0,0,0,2.79-2.89,2.85,2.85,0,0,0-2.88-3.17,2.72,2.72,0,0,0-2.67,3,2.8,2.8,0,0,0,2.76,3.06m5.82-8.33v10.6H8.58v-1.55a3.84,3.84,0,0,1-3.36,1.78C2,440.1,0,437.62,0,434.52S1.82,429,5.16,429a4.3,4.3,0,0,1,3.42,1.67v-1.44Z" transform="translate(0)"/></g><polygon class="cls-3" points="20.83 439.87 17.74 439.87 13.25 429.27 16.66 429.27 19.26 436.42 21.89 429.27 25.3 429.27 20.83 439.87"/><g class="cls-2"><path class="cls-3" d="M35.27,424.37l-3.09,3.57H29.93L32,424.37Zm-6.45,9.05h5.37a2.51,2.51,0,0,0-2.65-1.88,2.67,2.67,0,0,0-2.72,1.88m8,4.59a6.74,6.74,0,0,1-5,2.09c-4,0-6.14-2.46-6.14-5.48A5.61,5.61,0,0,1,31.58,429c3,0,5.8,2,5.8,6.24H28.76c.06,1.33,1.29,2.3,3.28,2.3a4.56,4.56,0,0,0,3-1.26Z" transform="translate(0)"/><path class="cls-3" d="M49,434.19v5.68H45.87v-5.7c0-1.45-.41-2.59-1.79-2.59s-1.78,1.18-1.78,2.61v5.68H39.19v-10.6H42.3v1.44a3.59,3.59,0,0,1,6.14.11A3.56,3.56,0,0,1,51.82,429c3,0,3.82,2.38,3.82,5.07v5.76H52.53v-5.7c0-1.45-.42-2.59-1.79-2.59S49,432.76,49,434.19" transform="translate(0)"/><path class="cls-3" d="M60.67,433.42H66a2.5,2.5,0,0,0-2.65-1.88,2.66,2.66,0,0,0-2.71,1.88m8,4.59a6.73,6.73,0,0,1-5,2.09c-4,0-6.13-2.46-6.13-5.48A5.61,5.61,0,0,1,63.43,429c3,0,5.8,2,5.8,6.24H60.61c.06,1.33,1.29,2.3,3.27,2.3a4.57,4.57,0,0,0,3-1.26Z" transform="translate(0)"/><path class="cls-3" d="M71,429.27h3.11v1.44A3.82,3.82,0,0,1,77.47,429c3,0,3.82,2.38,3.82,5.07v5.76H78.18v-5.7c0-1.47-.54-2.59-2-2.59s-2,1.14-2,2.61v5.68H71Z" transform="translate(0)"/><path class="cls-3" d="M87.68,429.27h3v2.42h-3v5c0,.45.18.93.79.93s.81-.5.81-1a3.41,3.41,0,0,0-.14-.91H91.6a3,3,0,0,1,.25,1.26c0,1.57-1,3.16-3.57,3.16-1.88,0-3.71-.66-3.71-3.74v-4.67H83v-2.42H84.8l.48-2.61h2.4Z" transform="translate(0)"/><path class="cls-3" d="M108.92,437a5,5,0,0,0-.91-2.75,4.94,4.94,0,0,0-8.8,1.61,4.82,4.82,0,0,0-.15,1.14l-.24-.31a6.33,6.33,0,0,1,3-9.6,6.51,6.51,0,0,1,2.17-.37A6.32,6.32,0,0,1,108.92,437M104,424a9,9,0,0,0-8.23,12.66,6.55,6.55,0,0,0,9,2.56l.41-.26a2.16,2.16,0,0,1-1.2.35,2.19,2.19,0,0,1-.73-.12,2.24,2.24,0,1,1,2.62-3.32,1.38,1.38,0,0,1,.14.24,3.88,3.88,0,0,1,.42,1.73v.05a4.07,4.07,0,0,1-.13,1,3.74,3.74,0,0,1-.61,1.29,3.91,3.91,0,0,1-3.12,1.63h-.06a4.65,4.65,0,0,1-.75-.07A9,9,0,1,0,104,424" transform="translate(0)"/></g></g></g></svg>