<svg xmlns="http://www.w3.org/2000/svg" xmlns:xlink="http://www.w3.org/1999/xlink" viewBox="0 0 1026.25 371.9"><defs><style>.cls-1{fill:none;}.cls-2{clip-path:url(#clip-path);}.cls-3{fill:#6bc4eb;}.cls-4{fill:#1d1d1b;}.cls-5{fill:#3db2e5;}</style><clipPath id="clip-path" transform="translate(0 0)"><rect class="cls-1" width="1026.25" height="371.9"/></clipPath></defs><g id="Ebene_2" data-name="Ebene 2"><g id="Layer_1" data-name="Layer 1"><g class="cls-2"><path class="cls-3" d="M1026.25.65H842.1C872.77,5,896.32,30.82,896.32,62c0,33.85-27.78,61.36-62.3,62h62.31v61.21C896.76,151.3,925,124,959.8,124c35.07,0,63.49,27.75,63.49,62s-28.42,62-63.49,62a64.89,64.89,0,0,1-15.57-1.88,28.25,28.25,0,0,0,5.33.51l.41,0a27.75,27.75,0,0,0,22-11.21,26.55,26.55,0,0,0,2.15-3.45,26.26,26.26,0,0,0,3-12.27v-.29a26.36,26.36,0,0,0-3-12,15.72,15.72,0,0,0-14.32-8.84,15.42,15.42,0,0,0-5.14,30.09,16.15,16.15,0,0,0,5.14.84,16,16,0,0,0,8.48-2.41c-.92.62-1.88,1.2-2.85,1.75a45.23,45.23,0,0,1-22.77,6c-16.51,0-32.79-8.64-40.86-23.65a60.8,60.8,0,0,1-5.47-24.42v61.18H832.84c35.06,0,63.48,27.75,63.48,62s-28.42,62-63.48,62A65.49,65.49,0,0,1,817.26,370a28.41,28.41,0,0,0,5.33.5H823a27.76,27.76,0,0,0,22-11.21,27.32,27.32,0,0,0,2.16-3.45,26.3,26.3,0,0,0,2.13-5.43,26.67,26.67,0,0,0,.9-6.84v-.3a26.44,26.44,0,0,0-3-12,14.92,14.92,0,0,0-.94-1.65,15.9,15.9,0,0,0-13.38-7.19A15.64,15.64,0,0,0,817,337.93a15.49,15.49,0,0,0,10.69,14.62A16.07,16.07,0,0,0,841.31,351c-.92.62-1.88,1.19-2.85,1.75a45.23,45.23,0,0,1-22.77,6.05c-16.51,0-32.79-8.64-40.86-23.65a61,61,0,0,1-5.48-25.22c0-34.24,28.43-62,63.49-62H190.45c35.06,0,63.49,27.75,63.49,62s-28.43,62-63.49,62A65.4,65.4,0,0,1,174.88,370a28.23,28.23,0,0,0,5.32.5h.41a27.78,27.78,0,0,0,22-11.21,26.38,26.38,0,0,0,5.19-15.72v-.3a26.31,26.31,0,0,0-3-12,14.92,14.92,0,0,0-.94-1.65,15.88,15.88,0,0,0-13.38-7.19,15.64,15.64,0,0,0-15.84,15.46,15.49,15.49,0,0,0,10.69,14.62A16.07,16.07,0,0,0,198.92,351c-.92.62-1.88,1.19-2.85,1.75a45.23,45.23,0,0,1-22.77,6.05c-16.51,0-32.78-8.64-40.85-23.65A60.71,60.71,0,0,1,127,309.92c0-34.24,28.42-62,63.48-62H127.83V124h61.44a64.81,64.81,0,0,1-14.39-1.88,28.23,28.23,0,0,0,5.32.51h.41a27.76,27.76,0,0,0,22-11.22,25,25,0,0,0,2.16-3.45,26.26,26.26,0,0,0,3-12.26v-.3a26.28,26.28,0,0,0-3-12,14.92,14.92,0,0,0-.94-1.65,15.89,15.89,0,0,0-13.38-7.2,15.42,15.42,0,0,0-5.15,30.09,16.25,16.25,0,0,0,5.15.84,16,16,0,0,0,8.47-2.4c-.92.62-1.88,1.19-2.85,1.74a45.14,45.14,0,0,1-22.77,6.06c-16.51,0-32.78-8.64-40.85-23.65A60.72,60.72,0,0,1,127,62C127,30.82,150.52,5,181.19.65H0V371.9H1026.25ZM46.34,234.82c-16.51,0-32.79-8.64-40.86-23.65A60.83,60.83,0,0,1,0,186c0-34.23,28.42-62,63.48-62S127,151.72,127,186s-28.43,62-63.49,62a64.89,64.89,0,0,1-15.57-1.88,28.25,28.25,0,0,0,5.33.51l.41,0a27.71,27.71,0,0,0,22-11.21,25.58,25.58,0,0,0,2.16-3.45,26.26,26.26,0,0,0,3-12.27v-.29a26.35,26.35,0,0,0-3-12,17.86,17.86,0,0,0-.93-1.65,15.92,15.92,0,0,0-13.39-7.19,15.42,15.42,0,0,0-5.14,30.09,16.15,16.15,0,0,0,5.14.84A16,16,0,0,0,72,227c-.93.62-1.88,1.2-2.86,1.75a45.17,45.17,0,0,1-22.76,6M823.58.65H199.71C230.38,5,253.94,30.82,253.94,62c0,33.85-27.79,61.36-62.3,62h640a65,65,0,0,1-14.4-1.88,28.41,28.41,0,0,0,5.33.51H823a27.74,27.74,0,0,0,22-11.22,26.73,26.73,0,0,0,4.29-8.88,26.54,26.54,0,0,0,.9-6.83v-.3a26.4,26.4,0,0,0-3-12,14.92,14.92,0,0,0-.94-1.65,15.9,15.9,0,0,0-13.38-7.2,15.42,15.42,0,0,0-5.15,30.09,16.25,16.25,0,0,0,5.15.84,16,16,0,0,0,8.47-2.4c-.92.62-1.88,1.19-2.85,1.74a45.14,45.14,0,0,1-22.77,6.06c-16.51,0-32.79-8.64-40.86-23.65A61,61,0,0,1,769.35,62C769.35,30.82,792.91,5,823.58.65m9.26,17.77A45.48,45.48,0,0,0,817.59,21C800.46,27.12,788.22,43.15,788.22,62a42.62,42.62,0,0,0,8.19,25.15c.53.73,1.08,1.44,1.66,2.14a33.14,33.14,0,0,1,1.1-7.88,35.12,35.12,0,0,1,62-11.07,33.23,33.23,0,0,1,6.42,19A42.73,42.73,0,0,0,877.45,62c0-24-20-43.56-44.61-43.56m-642.39,0A45.52,45.52,0,0,0,175.2,21,43.65,43.65,0,0,0,145.84,62,42.68,42.68,0,0,0,154,87.13c.53.73,1.08,1.44,1.66,2.14a33.15,33.15,0,0,1,1.11-7.88,35.12,35.12,0,0,1,62-11.07,33.3,33.3,0,0,1,6.41,19A42.74,42.74,0,0,0,235.07,62c0-24-20-43.56-44.62-43.56m769.35,124A45.46,45.46,0,0,0,944.56,145,43.65,43.65,0,0,0,915.19,186a42.7,42.7,0,0,0,8.18,25.15c.54.73,1.09,1.44,1.66,2.14a33.59,33.59,0,0,1,1.11-7.88,35.12,35.12,0,0,1,62-11.07,33.28,33.28,0,0,1,6.42,19,42.78,42.78,0,0,0,9.84-27.29c0-24.06-20-43.56-44.62-43.56m-896.32,0A45.46,45.46,0,0,0,48.24,145,43.64,43.64,0,0,0,18.87,186a42.64,42.64,0,0,0,8.19,25.15c.52.73,1.08,1.44,1.65,2.14a33.08,33.08,0,0,1,1.11-7.88,35.12,35.12,0,0,1,62-11.07,33.28,33.28,0,0,1,6.42,19A42.78,42.78,0,0,0,108.1,186c0-24.06-20-43.56-44.62-43.56m769.36,124A45.48,45.48,0,0,0,817.59,269a43.65,43.65,0,0,0-29.37,40.95,42.64,42.64,0,0,0,8.19,25.15c.53.72,1.08,1.44,1.66,2.13a33,33,0,0,1,1.1-7.87,35.12,35.12,0,0,1,62-11.07,33.18,33.18,0,0,1,6.42,18.94,42.68,42.68,0,0,0,9.84-27.28c0-24.06-20-43.57-44.61-43.57m-642.39,0A45.53,45.53,0,0,0,175.2,269a43.64,43.64,0,0,0-29.36,40.95A42.7,42.7,0,0,0,154,335.07c.53.72,1.08,1.44,1.66,2.13a33,33,0,0,1,1.11-7.87A34.66,34.66,0,0,1,190.45,304a35,35,0,0,1,28.36,14.3,33.24,33.24,0,0,1,6.41,18.94,42.69,42.69,0,0,0,9.85-27.28c0-24.06-20-43.57-44.62-43.57" transform="translate(0 0)"/><path class="cls-4" d="M167.41,217.43c10.28,0,18.88-6.68,18.88-19.89,0-13.48-8-21.72-19.44-21.72s-18,9.37-18,20.59c0,11.64,7,21,18.59,21m39.3-57.23v72.85h-21V222.4c-5.22,7.52-12.12,12.2-22.68,12.2-22,0-35.22-17-35.22-38.34,0-20.44,12.25-37.62,34.79-37.62a28.86,28.86,0,0,1,23.11,11.5V160.2Z" transform="translate(0 0)"/></g><polygon class="cls-4" points="268.4 233.05 247.56 233.05 217.27 160.2 240.23 160.2 257.84 209.33 275.59 160.2 298.55 160.2 268.4 233.05"/><g class="cls-2"><path class="cls-4" d="M365.88,126.54,345,151.11H329.81l13.95-24.57Zm-43.53,62.2h36.2c-1.41-9.37-10.84-12.92-17.89-12.92-6.76,0-15.77,3.12-18.31,12.92m53.81,31.52c-10.28,11.37-24,14.34-33.67,14.34-26.76,0-41.41-16.89-41.41-37.62,0-21.44,16.62-38.34,39.87-38.34,20,0,39.15,13.91,39.15,42.88H321.93c.42,9.09,8.73,15.77,22.11,15.77,7.47,0,14.93-3.84,20-8.67Z" transform="translate(0 0)"/><path class="cls-4" d="M458.28,194v39.06H437.43V193.86c0-10-2.82-17.76-12.12-17.76-9.15,0-12,8.1-12,17.89v39.06h-21V160.2h21v9.94c4.65-7.25,11.41-11.5,19.3-11.5,11,0,18.45,4.82,22.12,12.21,5.49-10.65,15.91-12.21,22.82-12.21,20.28,0,25.77,16.32,25.77,34.79v39.62h-21V193.86c0-10-2.81-17.76-12.11-17.76s-12,8.1-12,17.89" transform="translate(0 0)"/><path class="cls-4" d="M537.29,188.74h36.2c-1.41-9.37-10.84-12.92-17.89-12.92-6.76,0-15.78,3.12-18.31,12.92m53.81,31.52c-10.28,11.37-24,14.34-33.67,14.34C530.67,234.6,516,217.71,516,197c0-21.44,16.62-38.34,39.87-38.34,20,0,39.16,13.91,39.16,42.88H536.87c.42,9.09,8.73,15.77,22.12,15.77,7.46,0,14.92-3.84,20-8.67Z" transform="translate(0 0)"/><path class="cls-4" d="M607.29,160.2h21v9.94c6.06-8.52,13.67-11.5,22.4-11.5,20.28,0,25.78,16.32,25.78,34.79v39.62h-21v-39.2c0-10.08-3.66-17.75-13.38-17.75s-13.81,7.81-13.81,17.89v39.06h-21Z" transform="translate(0 0)"/><path class="cls-4" d="M719.55,160.2h20v16.61h-20v34.08c0,3.13,1.27,6.4,5.36,6.4s5.49-3.41,5.49-6.82a22.87,22.87,0,0,0-1-6.25H746a21.69,21.69,0,0,1,1.69,8.66c0,10.8-7.05,21.72-24.09,21.72-12.68,0-25.07-4.54-25.07-25.69v-32.1H687.72V160.2h12.39l3.24-17.89h16.2Z" transform="translate(0 0)"/><path class="cls-4" d="M867.61,213.24a33.21,33.21,0,0,0-6.42-19,35.12,35.12,0,0,0-62,11.07,33.07,33.07,0,0,0-1.1,7.88c-.58-.7-1.13-1.41-1.66-2.14A42.64,42.64,0,0,1,788.22,186,43.65,43.65,0,0,1,817.59,145a45.48,45.48,0,0,1,15.25-2.61c24.64,0,44.61,19.5,44.61,43.56a42.73,42.73,0,0,1-9.84,27.29M832.84,124c-35.06,0-63.49,27.75-63.49,62a61,61,0,0,0,5.48,25.22c11.89,22.12,41.61,30.41,63.63,17.6,1-.55,1.93-1.13,2.85-1.75a15.92,15.92,0,0,1-8.47,2.41,16.25,16.25,0,0,1-5.15-.84,15.42,15.42,0,0,1,5.15-30.09,15.84,15.84,0,0,1,14.32,8.84,26.48,26.48,0,0,1,3,12v.29a26.56,26.56,0,0,1-.9,6.84,26.09,26.09,0,0,1-2.13,5.43,26.62,26.62,0,0,1-2.16,3.45,27.73,27.73,0,0,1-22,11.21l-.41,0a28.41,28.41,0,0,1-5.33-.51,65,65,0,0,0,15.58,1.88c35.06,0,63.48-27.75,63.48-62s-28.42-62-63.48-62" transform="translate(0 0)"/><path class="cls-3" d="M832.84,0a64.19,64.19,0,0,0-9.26.66H842.1A64.29,64.29,0,0,0,832.84,0M834,124h0" transform="translate(0 0)"/><path class="cls-5" d="M842.1.65H823.58C792.91,5,769.35,30.82,769.35,62a61,61,0,0,0,5.48,25.23c8.07,15,24.35,23.65,40.86,23.65a45.14,45.14,0,0,0,22.77-6.06c1-.55,1.93-1.12,2.85-1.74a16,16,0,0,1-8.47,2.4,16.25,16.25,0,0,1-5.15-.84,15.42,15.42,0,0,1,5.15-30.09,15.9,15.9,0,0,1,13.38,7.2,14.92,14.92,0,0,1,.94,1.65,26.4,26.4,0,0,1,3,12v.3a26.54,26.54,0,0,1-.9,6.83,26.73,26.73,0,0,1-4.29,8.88,27.74,27.74,0,0,1-22,11.22h-.41a28.41,28.41,0,0,1-5.33-.51,65,65,0,0,0,14.4,1.88H834c34.52-.62,62.3-28.13,62.3-62C896.32,30.82,872.77,5,842.1.65m-44,88.62c-.58-.7-1.13-1.41-1.66-2.14A42.62,42.62,0,0,1,788.22,62c0-18.83,12.24-34.86,29.37-40.95a45.48,45.48,0,0,1,15.25-2.61c24.64,0,44.61,19.51,44.61,43.56a42.73,42.73,0,0,1-9.84,27.29,33.23,33.23,0,0,0-6.42-19,35.12,35.12,0,0,0-62,11.07,33.14,33.14,0,0,0-1.1,7.88" transform="translate(0 0)"/><path class="cls-3" d="M190.45,0a64.29,64.29,0,0,0-9.26.66h18.52A64.19,64.19,0,0,0,190.45,0m1.19,124h0" transform="translate(0 0)"/><path class="cls-5" d="M199.72.65H181.19C150.52,5,127,30.82,127,62a60.72,60.72,0,0,0,5.48,25.23c8.07,15,24.34,23.65,40.85,23.65a45.14,45.14,0,0,0,22.77-6.06c1-.55,1.93-1.12,2.85-1.74a16,16,0,0,1-8.47,2.4,16.25,16.25,0,0,1-5.15-.84A15.5,15.5,0,0,1,174.61,90a15.66,15.66,0,0,1,15.84-15.47,15.89,15.89,0,0,1,13.38,7.2,14.92,14.92,0,0,1,.94,1.65,26.28,26.28,0,0,1,3,12v.3a26.26,26.26,0,0,1-3,12.26,25,25,0,0,1-2.16,3.45,27.73,27.73,0,0,1-22,11.22h-.41a28.23,28.23,0,0,1-5.32-.51A64.81,64.81,0,0,0,189.27,124h2.37c34.51-.62,62.3-28.13,62.3-62C253.94,30.82,230.38,5,199.72.65m-44,88.62c-.57-.7-1.13-1.41-1.66-2.14A42.68,42.68,0,0,1,145.84,62,43.65,43.65,0,0,1,175.2,21a45.52,45.52,0,0,1,15.25-2.61c24.64,0,44.62,19.51,44.62,43.56a42.78,42.78,0,0,1-9.84,27.29,33.38,33.38,0,0,0-6.42-19,35.12,35.12,0,0,0-62,11.07,33.15,33.15,0,0,0-1.11,7.88" transform="translate(0 0)"/><path class="cls-5" d="M190.45,247.93h0c-35.06,0-63.48,27.75-63.48,62a60.67,60.67,0,0,0,5.48,25.22c8.07,15,24.34,23.65,40.85,23.65a45.23,45.23,0,0,0,22.77-6.05c1-.56,1.93-1.13,2.85-1.75a16.07,16.07,0,0,1-13.62,1.56,15.49,15.49,0,0,1-10.69-14.62,15.66,15.66,0,0,1,15.84-15.46,15.91,15.91,0,0,1,13.38,7.19,14.92,14.92,0,0,1,.94,1.65,26.31,26.31,0,0,1,3,12v.3a26.53,26.53,0,0,1-5.19,15.72,27.75,27.75,0,0,1-22,11.21h-.41a28.23,28.23,0,0,1-5.32-.5,65.4,65.4,0,0,0,15.57,1.88c35.06,0,63.49-27.75,63.49-62s-28.43-62-63.49-62M155.68,337.2c-.57-.69-1.13-1.41-1.66-2.13a42.7,42.7,0,0,1-8.18-25.15A43.64,43.64,0,0,1,175.2,269a45.52,45.52,0,0,1,15.25-2.61c24.64,0,44.62,19.5,44.62,43.56a42.73,42.73,0,0,1-9.84,27.28,33.32,33.32,0,0,0-6.42-18.94A35,35,0,0,0,190.45,304a34.66,34.66,0,0,0-33.66,25.37,33,33,0,0,0-1.11,7.87" transform="translate(0 0)"/><path class="cls-3" d="M896.33,185.17c0,.26,0,.52,0,.78s0,.53,0,.8Z" transform="translate(0 0)"/><path class="cls-5" d="M959.81,124c-34.8,0-63,27.33-63.48,61.2v1.58a60.76,60.76,0,0,0,5.47,24.42c8.07,15,24.35,23.65,40.86,23.65a45.13,45.13,0,0,0,22.77-6c1-.55,1.93-1.13,2.85-1.75a16,16,0,0,1-8.47,2.41,16.16,16.16,0,0,1-5.15-.84,15.42,15.42,0,0,1,5.15-30.09,15.72,15.72,0,0,1,14.31,8.84,26.36,26.36,0,0,1,3,12v.29a26.13,26.13,0,0,1-.9,6.84,25.54,25.54,0,0,1-2.13,5.43,26.55,26.55,0,0,1-2.15,3.45,27.75,27.75,0,0,1-22,11.21l-.41,0a28.33,28.33,0,0,1-5.33-.51,64.91,64.91,0,0,0,15.58,1.88c35.06,0,63.48-27.75,63.48-62s-28.42-62-63.48-62M925,213.24c-.57-.7-1.12-1.41-1.65-2.14A42.64,42.64,0,0,1,915.19,186,43.65,43.65,0,0,1,944.56,145a45.48,45.48,0,0,1,15.25-2.61c24.64,0,44.61,19.5,44.61,43.56a42.73,42.73,0,0,1-9.84,27.29,33.28,33.28,0,0,0-6.42-19,35.12,35.12,0,0,0-62,11.07,33.59,33.59,0,0,0-1.11,7.88" transform="translate(0 0)"/><path class="cls-5" d="M63.48,124C28.42,124,0,151.72,0,186a60.83,60.83,0,0,0,5.48,25.22c8.07,15,24.35,23.65,40.86,23.65a45.07,45.07,0,0,0,22.76-6c1-.55,1.93-1.13,2.86-1.75a16,16,0,0,1-8.48,2.41,16.15,16.15,0,0,1-5.14-.84,15.42,15.42,0,0,1,5.14-30.09,15.92,15.92,0,0,1,13.39,7.19,17.86,17.86,0,0,1,.93,1.65,26.35,26.35,0,0,1,3,12v.29a26.26,26.26,0,0,1-3,12.27,25.58,25.58,0,0,1-2.16,3.45,27.71,27.71,0,0,1-22,11.21l-.41,0a28.25,28.25,0,0,1-5.33-.51,64.89,64.89,0,0,0,15.57,1.88c35.06,0,63.49-27.75,63.49-62s-28.43-62-63.49-62M28.71,213.24c-.57-.7-1.13-1.41-1.65-2.14A42.64,42.64,0,0,1,18.87,186,43.64,43.64,0,0,1,48.24,145a45.46,45.46,0,0,1,15.24-2.61c24.65,0,44.62,19.5,44.62,43.56a42.78,42.78,0,0,1-9.84,27.29,33.28,33.28,0,0,0-6.42-19,35.12,35.12,0,0,0-62,11.07,33.08,33.08,0,0,0-1.11,7.88" transform="translate(0 0)"/><path class="cls-5" d="M832.84,247.93h0c-35.06,0-63.49,27.75-63.49,62a61,61,0,0,0,5.48,25.22c8.07,15,24.35,23.65,40.86,23.65a45.23,45.23,0,0,0,22.77-6.05c1-.56,1.93-1.13,2.85-1.75a16.07,16.07,0,0,1-13.62,1.56A15.49,15.49,0,0,1,817,337.93a15.65,15.65,0,0,1,15.84-15.46,15.92,15.92,0,0,1,13.38,7.19,14.92,14.92,0,0,1,.94,1.65,26.44,26.44,0,0,1,3,12v.3a26.62,26.62,0,0,1-.9,6.84,26.3,26.3,0,0,1-2.13,5.43A27.32,27.32,0,0,1,845,359.3a27.76,27.76,0,0,1-22,11.21h-.41a28.41,28.41,0,0,1-5.33-.5,65.49,65.49,0,0,0,15.58,1.88c35.06,0,63.48-27.75,63.48-62s-28.42-62-63.48-62M798.07,337.2c-.58-.69-1.13-1.41-1.66-2.13a42.64,42.64,0,0,1-8.19-25.15A43.65,43.65,0,0,1,817.59,269a45.48,45.48,0,0,1,15.25-2.61c24.64,0,44.61,19.5,44.61,43.56a42.68,42.68,0,0,1-9.84,27.28,33.18,33.18,0,0,0-6.42-18.94,35.12,35.12,0,0,0-62,11.07,33,33,0,0,0-1.1,7.87" transform="translate(0 0)"/></g></g></g></svg>