<svg xmlns="http://www.w3.org/2000/svg" viewBox="0 0 490.3 602.49"><defs><style>.cls-1{font-size:25px;font-family:Montserrat-SemiBold, Montserrat;font-weight:600;}.cls-1,.cls-10{fill:#1d1d1b;}.cls-2{letter-spacing:-0.01em;}.cls-3{letter-spacing:-0.01em;}.cls-4{letter-spacing:-0.02em;}.cls-5{letter-spacing:0em;}.cls-6{letter-spacing:0em;}.cls-7{letter-spacing:-0.02em;}.cls-8{letter-spacing:0em;}.cls-9{letter-spacing:0em;}.cls-10{font-size:20px;font-family:Montserrat-Regular, Montserrat;}.cls-11{letter-spacing:-0.03em;}.cls-12{letter-spacing:-0.05em;}.cls-13{letter-spacing:-0.03em;}.cls-14{letter-spacing:-0.02em;}.cls-15{letter-spacing:-0.03em;}.cls-16{fill:#fff;}.cls-17,.cls-20{fill:none;}.cls-17{stroke:#1d1d1b;}.cls-18{fill:#e7cf4f;}.cls-19{fill:#161516;}.cls-20{stroke:#fff;}.cls-21{fill:#d23b3b;}.cls-22{fill:#634163;}</style></defs><g id="Ebene_2" data-name="Ebene 2"><g id="Layer_1" data-name="Layer 1"><text class="cls-1" transform="translate(6.45 21.25)"><tspan class="cls-2">P</tspan><tspan class="cls-3" x="17.77" y="0">r</tspan><tspan x="28.15" y="0">imär </tspan><tspan class="cls-4" x="94.27" y="0">F</tspan><tspan x="109.77" y="0">a</tspan><tspan class="cls-5" x="124.95" y="0">r</tspan><tspan class="cls-6" x="135.35" y="0">ben</tspan></text><text class="cls-1" transform="translate(0 369.25)">Se<tspan class="cls-7" x="31.27" y="0">k</tspan><tspan class="cls-8" x="46.65" y="0">o</tspan><tspan class="cls-9" x="62.77" y="0">n</tspan><tspan class="cls-8" x="80.02" y="0">där </tspan><tspan class="cls-4" x="129.77" y="0">F</tspan><tspan x="145.27" y="0">a</tspan><tspan class="cls-3" x="160.45" y="0">r</tspan><tspan class="cls-6" x="170.82" y="0">ben</tspan></text><text class="cls-10" transform="translate(1.49 237.25)">#ffffff</text><text class="cls-10" transform="translate(0.01 597.25)">#<tspan class="cls-11" x="13.92" y="0">e</tspan><tspan class="cls-12" x="25.44" y="0">7</tspan><tspan x="36.24" y="0">c</tspan><tspan class="cls-13" x="47.5" y="0">f</tspan><tspan x="53.74" y="0">4f </tspan></text><text class="cls-10" transform="translate(176.33 237.25)">#161516</text><text class="cls-10" transform="translate(174.85 597.25)">#d23<tspan class="cls-14" x="50.12" y="0">b</tspan><tspan x="63.22" y="0">3b</tspan></text><text class="cls-10" transform="translate(348.96 597.25)">#63<tspan class="cls-15" x="37.38" y="0">4</tspan><tspan x="50.1" y="0">163</tspan></text><rect class="cls-16" x="1.25" y="42.5" width="140.36" height="140.36"/><rect class="cls-17" x="1.25" y="42.5" width="140.36" height="140.36"/><rect class="cls-18" x="0.01" y="403.76" width="139.87" height="139.87"/><rect class="cls-19" x="176.83" y="42.5" width="140.36" height="140.36"/><rect class="cls-20" x="176.83" y="42.5" width="140.36" height="140.36"/><rect class="cls-21" x="175.59" y="403.76" width="139.87" height="139.87"/><rect class="cls-22" x="350.43" y="403.76" width="139.87" height="139.87"/></g></g></svg>