<svg xmlns="http://www.w3.org/2000/svg" viewBox="0 0 94.73 94.67"><defs><style>.cls-1{fill:#0d6674;}.cls-2{fill:aqua;}.cls-3{fill:none;}</style></defs><g id="Ebene_2" data-name="Ebene 2"><g id="Layer_1" data-name="Layer 1"><path class="cls-1" d="M47.4,0A47.35,47.35,0,0,0,4.15,66.6,34.43,34.43,0,0,0,34.61,84.66a33.11,33.11,0,0,0,17-4.62c.72-.42,1.43-.86,2.12-1.33a11.71,11.71,0,0,1-6.31,1.83,11.81,11.81,0,1,1,10-18.13,10.47,10.47,0,0,1,.7,1.27,20.34,20.34,0,0,1,2.25,9.14,1.69,1.69,0,0,1,0,.23,20.33,20.33,0,0,1-2.26,9.36,19.58,19.58,0,0,1-1.61,2.64,20.54,20.54,0,0,1-16.4,8.56h-.31a20.09,20.09,0,0,1-4-.39A47.34,47.34,0,1,0,47.4,0M21.47,68.18c-.43-.54-.84-1.08-1.24-1.64a33.27,33.27,0,1,1,53.09,1.64,25.93,25.93,0,0,0-51.85,0"/><path class="cls-2" d="M47.4,0A47.34,47.34,0,1,0,94.73,47.34,47.33,47.33,0,0,0,47.4,0m0,.51A46.83,46.83,0,1,1,.57,47.34,46.88,46.88,0,0,1,47.4.51"/><path class="cls-2" d="M47.4,13.48A33.86,33.86,0,1,0,81.26,47.34,33.86,33.86,0,0,0,47.4,13.48m0,.5A33.36,33.36,0,1,1,14,47.34,33.4,33.4,0,0,1,47.4,14"/><path class="cls-2" d="M47.4,42.67A25.82,25.82,0,1,0,73.22,68.49,25.82,25.82,0,0,0,47.4,42.67m0,.51A25.31,25.31,0,1,1,22.08,68.49,25.34,25.34,0,0,1,47.4,43.18"/><path class="cls-2" d="M47.4,56.38A12.28,12.28,0,1,0,59.68,68.66,12.28,12.28,0,0,0,47.4,56.38m0,.51A11.77,11.77,0,1,1,35.62,68.66,11.78,11.78,0,0,1,47.4,56.89"/><path class="cls-2" d="M40,52.44a20.81,20.81,0,1,0,20.8,20.8A20.8,20.8,0,0,0,40,52.44M40,53a20.3,20.3,0,1,1-20.3,20.29A20.32,20.32,0,0,1,40,53"/><path class="cls-2" d="M34.67,15.35A34.67,34.67,0,1,0,69.33,50,34.67,34.67,0,0,0,34.67,15.35m0,.51A34.16,34.16,0,1,1,.51,50,34.2,34.2,0,0,1,34.67,15.86"/><rect class="cls-3" width="94.73" height="94.67"/></g></g></svg>