<svg xmlns="http://www.w3.org/2000/svg" viewBox="0 0 1382.8 294.2"><defs><style>.cls-1{font-size:20px;font-family:Montserrat-SemiBold, Montserrat;font-weight:600;}.cls-1,.cls-10{fill:#1d1d1b;}.cls-2{letter-spacing:-0.01em;}.cls-3{letter-spacing:0em;}.cls-4{letter-spacing:-0.02em;}.cls-5{letter-spacing:0em;}.cls-6{letter-spacing:0em;}.cls-7{letter-spacing:-0.02em;}.cls-8{letter-spacing:0em;}.cls-9{letter-spacing:0em;}.cls-10{font-size:16px;font-family:Montserrat-Medium, Montserrat;font-weight:500;}.cls-11{letter-spacing:-0.03em;}.cls-12{letter-spacing:-0.05em;}.cls-13{letter-spacing:-0.02em;}.cls-14{letter-spacing:-0.02em;}.cls-15{fill:#fff;}.cls-16,.cls-19{fill:none;}.cls-16{stroke:#1d1d1b;}.cls-17{fill:#e7cf4f;}.cls-18{fill:#161516;}.cls-19{stroke:#fff;}.cls-20{fill:#d23b3b;}.cls-21{fill:#634163;}</style></defs><g id="Ebene_2" data-name="Ebene 2"><g id="Ebene_1-2" data-name="Ebene 1"><text class="cls-1" transform="translate(0 17)"><tspan class="cls-2">P</tspan><tspan class="cls-3" x="14.24" y="0">r</tspan><tspan x="22.54" y="0">imär </tspan><tspan class="cls-4" x="75.44" y="0">F</tspan><tspan class="cls-5" x="87.84" y="0">a</tspan><tspan class="cls-6" x="99.98" y="0">r</tspan><tspan x="108.3" y="0">ben</tspan></text><text class="cls-1" transform="translate(617.56 17)">Se<tspan class="cls-7" x="25.02" y="0">k</tspan><tspan x="37.32" y="0">o</tspan><tspan class="cls-8" x="50.22" y="0">n</tspan><tspan x="64" y="0">där </tspan><tspan class="cls-4" x="103.8" y="0">F</tspan><tspan x="116.2" y="0">a</tspan><tspan class="cls-9" x="128.34" y="0">r</tspan><tspan x="136.66" y="0">ben</tspan></text><text class="cls-10" transform="translate(1.16 289.99)">#ffffff</text><text class="cls-10" transform="translate(617.56 289.99)">#<tspan class="cls-11" x="11.25" y="0">e</tspan><tspan class="cls-12" x="20.61" y="0">7</tspan><tspan x="29.39" y="0">c</tspan><tspan class="cls-11" x="38.53" y="0">f</tspan><tspan x="43.74" y="0">4f</tspan></text><text class="cls-10" transform="translate(274.04 289.99)">#161516</text><text class="cls-10" transform="translate(890.44 289.99)">#d23<tspan class="cls-13" x="40.5" y="0">b</tspan><tspan x="51.04" y="0">3b</tspan></text><text class="cls-10" transform="translate(1162.17 289.99)">#63<tspan class="cls-14" x="30.27" y="0">4</tspan><tspan x="40.59" y="0">163</tspan></text><rect class="cls-15" x="0.5" y="37.94" width="219.63" height="219.63"/><rect class="cls-16" x="0.5" y="37.94" width="219.63" height="219.63"/><rect class="cls-17" x="617.56" y="39.76" width="218.31" height="218.31"/><rect class="cls-18" x="274.55" y="37.94" width="219.63" height="219.63"/><rect class="cls-19" x="274.55" y="37.94" width="219.63" height="219.63"/><rect class="cls-20" x="891.61" y="39.76" width="218.31" height="218.31"/><rect class="cls-21" x="1164.49" y="39.76" width="218.31" height="218.31"/></g></g></svg>
