<svg xmlns="http://www.w3.org/2000/svg" xmlns:xlink="http://www.w3.org/1999/xlink" viewBox="0 0 1894.89 1065.87"><defs><style>.cls-1{fill:none;}.cls-2{fill:#fff;}.cls-3{clip-path:url(#clip-path);}</style><clipPath id="clip-path"><rect class="cls-1" x="457" y="454.18" width="980.89" height="157.52"/></clipPath></defs><g id="Ebene_2" data-name="Ebene 2"><g id="Ebene_1-2" data-name="Ebene 1"><rect x="0.5" y="0.5" width="1893.89" height="1064.87"/><path class="cls-2" d="M1893.89,1V1064.87H1V1H1893.89m1-1H0V1065.87H1894.89V0Z"/><g class="cls-3"><path class="cls-2" d="M507.84,573.19c13.21,0,24.24-8.5,24.24-25.33,0-17.19-10.31-27.68-25-27.68-14.84,0-23.16,11.94-23.16,26.23,0,14.84,9,26.78,23.88,26.78m50.48-72.92v92.82h-27V579.52c-6.69,9.59-15.56,15.56-29.13,15.56C474,595.08,457,573.37,457,546.23c0-26.05,15.74-48,44.69-48a37.18,37.18,0,0,1,29.67,14.66V500.27Z"/></g><polygon class="cls-2" points="637.55 593.09 610.78 593.09 571.88 500.27 601.37 500.27 623.98 562.88 646.78 500.27 676.27 500.27 637.55 593.09"/><path class="cls-2" d="M762.75,457.39,736,488.7H716.43l17.91-31.31Zm-55.91,79.25h46.5c-1.81-11.94-13.93-16.46-23-16.46-8.68,0-20.26,4-23.52,16.46M776,576.81c-13.2,14.47-30.75,18.27-43.24,18.27-34.37,0-53.19-21.53-53.19-48,0-27.31,21.35-48.85,51.2-48.85,25.69,0,50.3,17.73,50.3,54.64H706.3c.54,11.58,11.22,20.09,28.4,20.09,9.59,0,19.18-4.89,25.69-11Z"/><path class="cls-2" d="M881.42,543.34v49.75H854.65V543.16c0-12.67-3.62-22.62-15.57-22.62-11.76,0-15.37,10.31-15.37,22.8v49.75h-27V500.27h27v12.67c6-9.23,14.65-14.66,24.78-14.66,14.12,0,23.71,6.15,28.41,15.57,7.06-13.58,20.45-15.57,29.31-15.57,26,0,33.11,20.81,33.11,44.33v50.48h-27V543.16c0-12.67-3.62-22.62-15.56-22.62-11.76,0-15.38,10.31-15.38,22.8"/><path class="cls-2" d="M982.91,536.64h46.5c-1.82-11.94-13.94-16.46-23-16.46-8.69,0-20.27,4-23.52,16.46M1052,576.81c-13.21,14.47-30.76,18.27-43.24,18.27-34.38,0-53.19-21.53-53.19-48,0-27.31,21.35-48.85,51.2-48.85,25.69,0,50.3,17.73,50.3,54.64H982.37c.54,11.58,11.21,20.09,28.4,20.09,9.59,0,19.18-4.89,25.69-11Z"/><path class="cls-2" d="M1072.82,500.27h27v12.67c7.77-10.86,17.55-14.66,28.76-14.66,26,0,33.11,20.81,33.11,44.33v50.48h-27V543.15c0-12.84-4.71-22.61-17.19-22.61s-17.73,10-17.73,22.8v49.75h-27Z"/><path class="cls-2" d="M1217,500.27h25.69v21.17H1217v43.42c0,4,1.62,8.15,6.87,8.15s7-4.34,7-8.69a29.44,29.44,0,0,0-1.26-8H1251a27.23,27.23,0,0,1,2.17,11c0,13.75-9,27.68-30.94,27.68-16.28,0-32.2-5.79-32.2-32.75V521.44h-13.94V500.27H1192l4.16-22.79H1217Z"/><path class="cls-2" d="M1402.27,567.61a43.15,43.15,0,0,0-86.28,0c-.71-.88-1.4-1.79-2.06-2.71a55.36,55.36,0,1,1,88.34,2.71m-43.14-113.43a78.78,78.78,0,0,0-72,110.8c14.75,28.12,51.62,38.64,78.93,22.36,1.21-.7,2.39-1.43,3.54-2.21a19.62,19.62,0,1,1,7.25-25,34,34,0,0,1,3.75,15.21c0,.13,0,.25,0,.38a34.55,34.55,0,0,1-1.11,8.69,34.28,34.28,0,0,1-32.61,25.53l-.52,0a34.19,34.19,0,0,1-6.6-.65,78.76,78.76,0,1,0,19.32-155.12"/><rect class="cls-1" x="457" y="454.18" width="980.89" height="157.52"/></g></g></svg>