<svg xmlns="http://www.w3.org/2000/svg" viewBox="0 0 247.19 49.86"><defs><style>.cls-1{font-size:42.71px;font-family:FilsonProBold, Filson Pro;}.cls-2{letter-spacing:-0.02em;}</style></defs><g id="Ebene_2" data-name="Ebene 2"><g id="Layer_1" data-name="Layer 1"><text class="cls-1" transform="translate(0 36.5)">a<tspan class="cls-2" x="28.1" y="0">v</tspan><tspan x="52.62" y="0">ément</tspan></text><path d="M225.29,0a21.92,21.92,0,0,0-20,30.82A15.93,15.93,0,0,0,227.22,37c.34-.19.67-.39,1-.61a5.47,5.47,0,1,1-2.92-10.09,5.61,5.61,0,0,1,4.94,3.13,9.54,9.54,0,0,1,1,4.23v.11a9.59,9.59,0,0,1-.31,2.41,9.29,9.29,0,0,1-1.48,3.14,9.5,9.5,0,0,1-7.59,4h-.14a9.33,9.33,0,0,1-1.84-.18,21.67,21.67,0,0,0,5.38.67,21.91,21.91,0,0,0,0-43.82Zm12,31.55a12,12,0,0,0-23.62-2.78,12.11,12.11,0,0,0-.39,2.78l-.57-.75A15.42,15.42,0,0,1,220,7.43a15.61,15.61,0,0,1,5.27-.92,15.4,15.4,0,0,1,12,25Z"/></g></g></svg>