<svg xmlns="http://www.w3.org/2000/svg" xmlns:xlink="http://www.w3.org/1999/xlink" viewBox="0 0 217.97 35"><defs><style>.cls-1{fill:none;}.cls-2{clip-path:url(#clip-path);}.cls-3{fill:#fff;}</style><clipPath id="clip-path" transform="translate(0 0)"><rect class="cls-1" width="217.97" height="35"/></clipPath></defs><g id="Ebene_2" data-name="Ebene 2"><g id="Layer_1" data-name="Layer 1"><g class="cls-2"><path class="cls-3" d="M11.3,26.45c2.93,0,5.39-1.89,5.39-5.63s-2.3-6.15-5.55-6.15S6,17.32,6,20.5s2,5.95,5.31,5.95M22.52,10.24V30.87h-6v-3a7.37,7.37,0,0,1-6.47,3.46c-6.27,0-10-4.82-10-10.85C0,14.67,3.5,9.8,9.93,9.8a8.25,8.25,0,0,1,6.59,3.26V10.24Z" transform="translate(0 0)"/></g><polygon class="cls-3" points="40.12 30.87 34.17 30.87 25.53 10.24 32.08 10.24 37.11 24.15 42.17 10.24 48.73 10.24 40.12 30.87"/><g class="cls-2"><path class="cls-3" d="M67.94.71,62,7.67H57.65l4-7ZM55.52,18.32H65.85c-.4-2.65-3.09-3.65-5.1-3.65a5.11,5.11,0,0,0-5.23,3.65m15.36,8.93a12.94,12.94,0,0,1-9.61,4.06c-7.64,0-11.82-4.78-11.82-10.65,0-6.07,4.74-10.86,11.38-10.86C66.54,9.8,72,13.74,72,21.94H55.4c.12,2.58,2.49,4.47,6.31,4.47A8.72,8.72,0,0,0,67.42,24Z" transform="translate(0 0)"/><path class="cls-3" d="M94.32,19.81V30.87H88.37V19.77c0-2.81-.81-5-3.46-5S81.49,17,81.49,19.81V30.87h-6V10.24h6v2.82A6.53,6.53,0,0,1,87,9.8c3.13,0,5.27,1.37,6.31,3.46,1.57-3,4.54-3.46,6.51-3.46,5.79,0,7.36,4.62,7.36,9.85V30.87h-6V19.77c0-2.81-.8-5-3.46-5S94.32,17,94.32,19.81" transform="translate(0 0)"/><path class="cls-3" d="M116.87,18.32H127.2c-.4-2.65-3.1-3.65-5.11-3.65a5.1,5.1,0,0,0-5.22,3.65m15.36,8.93a12.94,12.94,0,0,1-9.61,4.06c-7.64,0-11.82-4.78-11.82-10.65,0-6.07,4.74-10.86,11.37-10.86,5.71,0,11.18,3.94,11.18,12.14h-16.6c.12,2.58,2.49,4.47,6.31,4.47A8.72,8.72,0,0,0,128.77,24Z" transform="translate(0 0)"/><path class="cls-3" d="M136.85,10.24h6v2.82a7.34,7.34,0,0,1,6.39-3.26c5.79,0,7.36,4.62,7.36,9.85V30.87h-6V19.77c0-2.85-1-5-3.82-5s-3.94,2.21-3.94,5.06V30.87h-6Z" transform="translate(0 0)"/><path class="cls-3" d="M168.89,10.24h5.71V15h-5.71V24.6c0,.88.36,1.81,1.53,1.81s1.56-1,1.56-1.93a6.48,6.48,0,0,0-.28-1.77h4.75a6.07,6.07,0,0,1,.48,2.45c0,3.06-2,6.15-6.88,6.15-3.61,0-7.15-1.29-7.15-7.28V15h-3.1V10.24h3.54l.92-5.06h4.63Z" transform="translate(0 0)"/><path class="cls-3" d="M210.06,25.21a9.6,9.6,0,0,0-9.59-9.39,9.59,9.59,0,0,0-9.59,9.39c-.15-.2-.31-.4-.45-.61a12.3,12.3,0,1,1,19.63.61M200.47,0a17.51,17.51,0,0,0-16,24.62,12.72,12.72,0,0,0,17.54,5c.27-.15.53-.32.79-.49a4.36,4.36,0,0,1-2.34.68,4.45,4.45,0,0,1-1.42-.24,4.37,4.37,0,1,1,5.11-6.46,4.17,4.17,0,0,1,.26.46,7.57,7.57,0,0,1,.83,3.38V27a7.73,7.73,0,0,1-.24,1.93,7.45,7.45,0,0,1-.59,1.53,7.62,7.62,0,0,1-6.66,4.14h-.11a7.8,7.8,0,0,1-1.47-.14A17.51,17.51,0,0,0,218,17.5,17.5,17.5,0,0,0,200.47,0" transform="translate(0 0)"/></g></g></g></svg>